<?xml version="1.0" standalone="no"?>
<!DOCTYPE svg PUBLIC "-//W3C//DTD SVG 1.1//EN" "http://www.w3.org/Graphics/SVG/1.1/DTD/svg11.dtd" >
<svg xmlns="http://www.w3.org/2000/svg">
<metadata>
This is a custom SVG webfont generated by Font Squirrel.
Copyright   : Joe Prince Admix Designs  2008  2012
Designer    : Joe Prince
Foundry     : Joe Prince
Foundry URL : wwwlosttypecom
</metadata>
<defs>
<font id="BemioItalicRegular" horiz-adv-x="1474" >
<font-face units-per-em="2048" ascent="1536" descent="-512" />
<missing-glyph horiz-adv-x="466" />
<glyph unicode=" "  horiz-adv-x="466" />
<glyph unicode="&#x09;" horiz-adv-x="466" />
<glyph unicode="&#xa0;" horiz-adv-x="466" />
<glyph unicode="!" horiz-adv-x="671" d="M106 0l58 410h457l-58 -410h-457zM244 516l12 643l31 225h487l-31 -225l-172 -643h-327z" />
<glyph unicode="&#x22;" horiz-adv-x="999" d="M213 750l51 495l21 139h333l-20 -139l-88 -495h-297zM700 750l50 495l20 139h336l-21 -139l-90 -495h-295z" />
<glyph unicode="#" horiz-adv-x="1290" d="M90 248l35 250h227l54 200h-183l35 250h213l66 248h268l-68 -248h168l66 248h266l-66 -248h197l-35 -250h-227l-53 -200h182l-35 -250h-213l-67 -248h-267l66 248h-166l-68 -248h-266l68 248h-197zM618 498h168l54 200h-168z" />
<glyph unicode="$" horiz-adv-x="1228" d="M72 76q27 76 129 370q213 -111 403 -110q143 0 144 63q0 33 -31 53.5t-80 34t-109.5 26.5t-120 39t-108.5 62.5t-80 104t-31 158.5q0 217 156 363t385 167l29 192h194l-28 -192q193 -10 385 -74l-125 -356q-168 78 -369 78q-137 0 -137 -64q0 -37 42 -62.5t105.5 -37.5 t137 -39t137 -63.5t105.5 -113.5t42 -186q0 -209 -143 -347t-379 -160l-45 -312h-195l43 305q-255 9 -456 101z" />
<glyph unicode="%" horiz-adv-x="1665" d="M193 975q0 190 100 313t278 123q137 0 208 -83t71 -222q0 -190 -101.5 -313t-281.5 -123q-135 0 -204.5 83t-69.5 222zM291 -20l1055 1425h225l-1057 -1425h-223zM428 991q0 -125 68 -125q53 0 85.5 63.5t32.5 157.5q0 127 -69 127q-51 0 -84 -64.5t-33 -158.5zM1012 279 q0 190 101 313t282 123q135 0 204.5 -83t69.5 -222q0 -190 -100.5 -313.5t-278.5 -123.5q-137 0 -207.5 83.5t-70.5 222.5zM1247 297q0 -127 70 -127q51 0 84 64.5t33 158.5q0 125 -68 125q-53 0 -86 -63.5t-33 -157.5z" />
<glyph unicode="&#x26;" horiz-adv-x="1380" d="M104 324q0 137 88.5 245.5t219.5 141.5q-174 88 -174 278q0 199 173 310.5t455 111.5q223 0 445 -80l-109 -366q-147 63 -330 63q-176 0 -176 -86q0 -68 144 -68h34l-49 -348h-59q-156 0 -156 -90q0 -80 123 -80q84 0 130 39t55 99l53 380h499l-49 -348h-106l-2 -16 q-14 -111 -54 -202t-116 -169t-202 -122t-294 -44q-109 0 -201 18.5t-170.5 57.5t-125 110t-46.5 165z" />
<glyph unicode="'" horiz-adv-x="514" d="M213 750l51 495l21 139h333l-20 -139l-88 -495h-297z" />
<glyph unicode="(" horiz-adv-x="716" d="M106 336q0 299 97.5 557t328.5 573h396q-442 -518 -443 -1124q0 -432 179 -743h-396q-162 356 -162 737z" />
<glyph unicode=")" horiz-adv-x="716" d="M-63 -401q444 516 444 1122q0 432 -182 745h397q164 -365 164 -739q0 -299 -97.5 -556t-328.5 -572h-397z" />
<glyph unicode="*" horiz-adv-x="974" d="M193 963l106 239l70 -24l176 -91l6 218l12 79h238l-13 -79l-51 -215l201 90l76 24l39 -239l-74 -25l-211 -45l119 -160l37 -65l-215 -148l-35 64l-78 190l-129 -190l-51 -64l-174 148l53 63l162 162l-197 43z" />
<glyph unicode="+" horiz-adv-x="1114" d="M109 362l45 318h346l51 362h309l-51 -362h346l-45 -318h-346l-51 -362h-310l52 362h-346z" />
<glyph unicode="," horiz-adv-x="641" d="M59 -305l224 305h-189l58 410h456l-53 -373l-268 -342h-228z" />
<glyph unicode="-" horiz-adv-x="829" d="M147 375l46 317h641l-46 -317h-641z" />
<glyph unicode="." horiz-adv-x="643" d="M94 0l58 410h456l-57 -410h-457z" />
<glyph unicode="/" horiz-adv-x="1048" d="M39 -57l840 1472h323l-842 -1472h-321z" />
<glyph unicode="0" horiz-adv-x="1339" d="M145 571q0 229 76 416t241 305.5t396 118.5q268 0 397 -155.5t129 -440.5q0 -170 -45 -320.5t-131 -267t-224 -185.5t-312 -69q-268 0 -397.5 156.5t-129.5 441.5zM645 559q0 -106 15.5 -155.5t58.5 -49.5q70 0 119 122t49 347q0 106 -15.5 156.5t-58.5 50.5 q-70 0 -119 -122t-49 -349z" />
<glyph unicode="1" horiz-adv-x="950" d="M135 786l43 301q385 0 443 297h409l-194 -1384h-494l111 786h-318z" />
<glyph unicode="2" horiz-adv-x="1273" d="M72 0l55 395q80 49 205 120t193.5 112t143 94t107.5 99t33 93q0 49 -41 67.5t-129 18.5q-145 0 -371 -90l-14 389q106 41 273 77t294 36q113 0 200 -17.5t158.5 -57.5t110.5 -114.5t39 -181.5q0 -195 -114.5 -328.5t-360.5 -299.5h401l-57 -412h-1126z" />
<glyph unicode="3" horiz-adv-x="1241" d="M49 53l107 400q178 -84 379 -84q209 0 208 86q0 68 -135 67h-260l51 357h222q156 0 155 73q0 66 -145 66q-182 0 -348 -66l-4 377q242 82 481 82q242 0 378 -87t136 -259q0 -242 -260 -354q98 -27 165.5 -109t67.5 -207q0 -145 -103.5 -243.5t-255 -138.5t-339.5 -40 q-283 0 -500 80z" />
<glyph unicode="4" horiz-adv-x="1337" d="M70 248l55 387l625 749h581l-106 -757h127l-54 -379h-127l-34 -248h-457l35 248h-645zM526 616h248l51 357z" />
<glyph unicode="5" horiz-adv-x="1220" d="M57 51l105 385q170 -82 327 -82q94 0 151.5 31t57.5 86q0 100 -172 100q-66 0 -170 -18l-172 147l191 684h934l-54 -387h-505l-33 -114q57 4 88 4q186 0 307 -96.5t121 -301.5q0 -137 -58.5 -240.5t-159 -161.5t-219 -86t-253.5 -28q-246 0 -486 78z" />
<glyph unicode="6" horiz-adv-x="1296" d="M143 547q0 199 62.5 363.5t168 273t244 168t289.5 59.5q260 0 453 -104l-117 -326q-127 59 -297 59q-229 0 -282 -211q145 86 294 86q180 0 271.5 -103t91.5 -275q0 -252 -179 -408t-493 -156q-252 0 -379 151t-127 423zM639 428q0 -104 76 -104q55 0 83.5 50t28.5 118 q0 104 -73 104q-55 0 -85 -50t-30 -118z" />
<glyph unicode="7" horiz-adv-x="1153" d="M168 958l59 426h1100l-51 -370q-432 -477 -524 -1014h-512q68 410 483 958h-555z" />
<glyph unicode="8" horiz-adv-x="1296" d="M102 303q0 303 320 404q-178 68 -178 272q0 217 157.5 324.5t444.5 107.5q494 0 493 -321q0 -291 -268 -383q221 -76 221 -293q0 -131 -47 -220.5t-139 -136.5t-201.5 -65.5t-261.5 -18.5q-260 0 -400.5 72t-140.5 258zM606 371q0 -111 78 -111q59 0 90 53.5t31 143.5 q0 115 -78 114q-121 1 -121 -200zM707 973q0 -102 61 -103q43 0 71.5 46.5t28.5 119.5q0 98 -61 99q-49 0 -74.5 -49.5t-25.5 -112.5z" />
<glyph unicode="9" horiz-adv-x="1308" d="M113 78l120 352q152 -76 334 -76q125 0 187.5 45t87.5 133q-119 -63 -267 -63q-201 0 -297 106.5t-96 280.5q0 248 180.5 401.5t464.5 153.5q532 0 533 -584q0 -375 -207 -614.5t-569 -239.5q-278 1 -471 105zM672 891q0 -109 82 -109q57 0 85.5 50.5t28.5 115.5 q0 111 -82 111q-55 0 -84.5 -52.5t-29.5 -115.5z" />
<glyph unicode=":" horiz-adv-x="679" d="M111 0l57 410h457l-58 -410h-456zM205 676l57 409h457l-57 -409h-457z" />
<glyph unicode=";" horiz-adv-x="677" d="M78 -305l221 305h-188l57 410h457l-54 -373l-266 -342h-227zM205 676l57 409h457l-57 -409h-457z" />
<glyph unicode="&#x3c;" horiz-adv-x="1081" d="M104 354l48 336l987 383l-47 -346l-592 -205l532 -205l-47 -346z" />
<glyph unicode="=" horiz-adv-x="1196" d="M113 117l45 317h1003l-45 -317h-1003zM182 610l45 318h1004l-45 -318h-1004z" />
<glyph unicode="&#x3e;" horiz-adv-x="1081" d="M90 -29l49 346l590 205l-532 205l49 346l878 -383l-47 -336z" />
<glyph unicode="?" horiz-adv-x="1009" d="M233 1327q217 84 449 84q426 0 426 -287q0 -78 -32 -147.5t-79 -120.5t-95 -97t-85 -97.5t-45 -102.5l-6 -43h-389l10 70q8 57 48 114.5t82 98.5t77 93t35 99q0 37 -23.5 52.5t-83.5 15.5q-119 0 -272 -58zM276 0l58 410h457l-58 -410h-457z" />
<glyph unicode="@" horiz-adv-x="1501" d="M133 426q0 227 128 427t327.5 313.5t410.5 113.5q248 0 397.5 -159.5t149.5 -413.5q0 -256 -141 -406.5t-307 -150.5q-150 0 -170 149q-115 -150 -283 -149q-121 0 -187.5 81.5t-66.5 208.5q0 199 145.5 356.5t325.5 157.5q160 0 217 -129l86 99h164l-149 -467 q-43 -141 51 -142q84 0 151.5 107.5t67.5 277.5q0 227 -127 356.5t-338 129.5q-295 0 -526.5 -226.5t-231.5 -525.5q0 -227 139.5 -373.5t356.5 -146.5q180 0 350 104l39 -75q-201 -121 -405 -121q-256 0 -415 173t-159 431zM635 481q0 -66 31.5 -102.5t89.5 -36.5 q88 0 164.5 80t76.5 196q0 139 -118 140q-98 0 -171 -86.5t-73 -190.5z" />
<glyph unicode="A" d="M-25 0l654 1384h604l266 -1384h-508l-26 231h-390l-90 -231h-510zM705 555h221l-52 426z" />
<glyph unicode="B" horiz-adv-x="1392" d="M113 2l192 1374q258 35 463 35q131 0 240.5 -16.5t210 -55.5t157 -114.5t56.5 -182.5q0 -233 -224 -340q72 -16 137.5 -86.5t65.5 -187.5q0 -109 -45 -190.5t-121 -132t-187.5 -80t-227 -41t-259.5 -11.5q-245 0 -458 29zM641 326q12 -2 86 -2q82 0 147.5 31.5 t65.5 109.5q0 111 -182 110q-45 0 -82 -4zM715 842q14 -2 69 -2q186 0 187 135q0 98 -146 98q-43 0 -80 -4z" />
<glyph unicode="C" horiz-adv-x="1294" d="M143 604q0 358 236.5 582.5t605.5 224.5q223 0 457 -86l-152 -367q-106 51 -243 52q-178 0 -281.5 -98.5t-103.5 -254.5q0 -135 80.5 -205.5t228.5 -70.5q139 0 260 51l45 -373q-258 -86 -479 -86q-303 0 -478.5 164t-175.5 467z" />
<glyph unicode="D" horiz-adv-x="1521" d="M113 2l192 1374q227 35 512 35q348 0 552 -166t204 -463q0 -143 -36 -263t-96.5 -201.5t-145.5 -145t-174 -100.5t-193.5 -59.5t-192.5 -31t-182 -8.5q-192 0 -440 29zM670 367q16 -2 59 -2q166 0 249 115.5t83 291.5q0 125 -60.5 192.5t-175.5 67.5q-45 0 -61 -2z" />
<glyph unicode="E" horiz-adv-x="1280" d="M113 0l194 1384h1086l-56 -389h-592l-16 -121h518l-51 -360h-518l-16 -127h591l-55 -387h-1085z" />
<glyph unicode="F" horiz-adv-x="1189" d="M113 0l194 1384h1032l-55 -393h-530l-25 -170h463l-57 -407h-463l-58 -414h-501z" />
<glyph unicode="G" horiz-adv-x="1419" d="M141 596q0 365 251 590t659 225q207 0 430 -65l-121 -381q-147 49 -289 49q-217 0 -314.5 -100.5t-97.5 -258.5q0 -145 73 -214.5t177 -69.5q20 0 49 4l56 393h440l-96 -690q-236 -104 -535 -105q-328 0 -505 162t-177 461z" />
<glyph unicode="H" horiz-adv-x="1560" d="M113 0l194 1384h504l-70 -497h328l70 497h503l-194 -1384h-504l72 514h-328l-72 -514h-503z" />
<glyph unicode="I" horiz-adv-x="733" d="M113 0l194 1384h508l-194 -1384h-508z" />
<glyph unicode="J" horiz-adv-x="1030" d="M23 49l137 363q68 -23 131 -23q94 0 147.5 32t65.5 124l61 440h-235l57 399h739l-114 -811q-84 -600 -652 -600q-200 0 -337 76z" />
<glyph unicode="K" horiz-adv-x="1458" d="M113 0l194 1384h508l-74 -518q289 195 330 518h500q-27 -188 -141.5 -363t-309.5 -294q45 -113 90 -189.5t78 -113.5t77 -55.5t65.5 -20.5t66.5 -2l-45 -332q-133 -41 -278 -41q-160 0 -258.5 110t-223.5 423l-71 -506h-508z" />
<glyph unicode="L" horiz-adv-x="1138" d="M113 0l194 1384h508l-139 -995h498l-56 -389h-1005z" />
<glyph unicode="M" horiz-adv-x="1710" d="M113 0l194 1384h510l168 -452l297 452h510l-195 -1384h-473l99 707l-326 -443h-12l-201 443l-98 -707h-473z" />
<glyph unicode="N" horiz-adv-x="1583" d="M113 0l194 1384h506l289 -706l98 706h465l-195 -1384h-479l-313 711l-100 -711h-465z" />
<glyph unicode="O" horiz-adv-x="1593" d="M141 600q0 360 241 585.5t609 225.5q305 0 480.5 -164t175.5 -463q0 -360 -241 -585.5t-609 -225.5q-305 0 -480.5 164t-175.5 463zM653 631q0 -260 197 -260q137 0 211 107.5t74 277.5q0 258 -197 258q-137 0 -211 -107.5t-74 -275.5z" />
<glyph unicode="P" horiz-adv-x="1382" d="M113 0l194 1378q207 33 477 33q131 0 247 -23.5t221.5 -73.5t168 -147.5t62.5 -228.5q0 -164 -77 -287t-200 -188.5t-263 -91.5q-96 -18 -193 -19q-45 0 -91 4l-49 -356h-497zM709 727q20 -1 40 -1l70 4q55 7 109.5 48t54.5 115q0 57 -45 89t-95 38q-25 3 -48.5 3 t-44.5 -3z" />
<glyph unicode="Q" horiz-adv-x="1595" d="M141 600q0 360 241 585.5t609 225.5q305 0 480.5 -164t175.5 -463q0 -297 -167 -505.5t-444 -276.5q53 -23 157.5 -77t177.5 -81.5t134 -27.5q88 0 172 80l-37 -285q-109 -150 -303 -150q-88 0 -189 47.5t-174 102.5t-159 102t-147 47q-90 0 -170 -75l-136 143 q76 121 181 180q-193 59 -297.5 211t-104.5 381zM653 631q0 -260 197 -260q137 0 211 107.5t74 277.5q0 258 -197 258q-137 0 -211 -107.5t-74 -275.5z" />
<glyph unicode="R" d="M113 0l192 1370q229 41 512 41q686 0 686 -420q0 -356 -370 -481q27 -39 52 -68.5t54 -47t48.5 -29t50 -15.5t44 -5t45 0t37.5 1l-45 -332q-133 -41 -278 -41q-150 0 -245 97.5t-208 363.5q-8 -2 -24 -2l-62 -432h-489zM707 758q12 -2 43 -2q39 0 76.5 6t80.5 21.5 t68.5 49t25.5 82.5q0 68 -60 95.5t-138 27.5q-29 0 -58 -4z" />
<glyph unicode="S" horiz-adv-x="1234" d="M76 78l133 385q199 -113 401 -113q133 0 133 47q0 31 -56 47.5t-137 35t-162 53t-137 120.5t-56 217q0 240 176 390.5t471 150.5q236 0 479 -80l-133 -383q-160 82 -369 82q-125 0 -125 -47q0 -27 42 -45t103.5 -27.5t135.5 -37t135 -66.5t103 -121t42 -197 q0 -248 -179 -382t-490 -134q-281 1 -510 105z" />
<glyph unicode="T" horiz-adv-x="1294" d="M158 989l55 395h1255l-55 -395h-373l-139 -989h-508l139 989h-374z" />
<glyph unicode="U" horiz-adv-x="1468" d="M176 547l117 837h508l-117 -831q-4 -30 -4 -55q0 -44 13 -72q22 -45 95 -45q76 0 108 44t44 128l117 831h508l-117 -837q-41 -289 -225.5 -431.5t-491.5 -142.5t-451 143q-112 111 -113 310q0 57 9 121z" />
<glyph unicode="V" horiz-adv-x="1458" d="M182 1384h518l93 -919l354 919h518l-592 -1384h-692z" />
<glyph unicode="W" horiz-adv-x="2146" d="M201 1384h501v-942l330 942h465l66 -942l268 942h504l-488 -1384h-620l-47 778l-267 -778h-614z" />
<glyph unicode="X" horiz-adv-x="1449" d="M-10 0l485 717l-268 667h524l131 -389l242 389h528l-463 -667l289 -717h-526l-150 422l-266 -422h-526z" />
<glyph unicode="Y" horiz-adv-x="1390" d="M160 1384h514l143 -499l291 499h510l-598 -890l-70 -494h-508l70 494z" />
<glyph unicode="Z" horiz-adv-x="1284" d="M63 0l46 317l649 676h-525l56 391h1100l-54 -380l-579 -613h506l-56 -391h-1143z" />
<glyph unicode="[" horiz-adv-x="745" d="M45 -399l262 1865h606l-36 -262h-273l-188 -1337h272l-37 -266h-606z" />
<glyph unicode="\" horiz-adv-x="1048" d="M244 1415h323l426 -1472h-321z" />
<glyph unicode="]" horiz-adv-x="745" d="M-16 -399l36 266h273l188 1337h-272l37 262h604l-262 -1865h-604z" />
<glyph unicode="^" horiz-adv-x="1122" d="M162 668l405 716h371l205 -716h-336l-94 417l-213 -417h-338z" />
<glyph unicode="_" horiz-adv-x="1425" d="M199 -254l24 178h959l-25 -178h-958z" />
<glyph unicode="`" horiz-adv-x="768" d="M299 1526h387l168 -318h-281z" />
<glyph unicode="a" horiz-adv-x="1429" d="M117 453q0 274 156.5 466.5t381.5 192.5q162 0 258 -133l15 106h495l-98 -698q-2 -12 -2 -22q0 -38 25 -52q16 -9 41 -8q22 0 51 6l-43 -299q-117 -39 -287 -39q-111 0 -183.5 46.5t-97.5 123.5q-143 -170 -350 -170q-168 0 -265 136.5t-97 343.5zM602 516q0 -66 33 -110 t88 -44q70 0 121 63.5t51 147.5q0 66 -34 110t-87 44q-72 0 -122 -62.5t-50 -148.5z" />
<glyph unicode="b" horiz-adv-x="1370" d="M96 0l213 1513h498l-76 -538q141 137 311 137q168 0 265.5 -134t97.5 -341q0 -274 -145.5 -469t-376.5 -195q-186 0 -289 166l-21 -139h-477zM627 516q0 -66 32.5 -110t88.5 -44q72 0 122 62.5t50 148.5q0 66 -33 110t-88 44q-72 0 -122 -62.5t-50 -148.5z" />
<glyph unicode="c" horiz-adv-x="1048" d="M117 461q0 283 185 467t480 184q178 0 371 -74l-113 -336q-90 43 -192 43q-127 0 -183.5 -68.5t-56.5 -156.5q0 -70 47 -120t146 -50q106 0 205 45l14 -350q-203 -72 -391 -72q-238 0 -375 133.5t-137 354.5z" />
<glyph unicode="d" horiz-adv-x="1419" d="M117 453q0 281 156.5 470t381.5 189q162 0 258 -133l74 534h496l-158 -1126q-2 -12 -2 -22q0 -38 25 -52q16 -9 41 -8q22 0 51 6l-43 -299q-117 -39 -287 -39q-111 0 -183.5 46.5t-97.5 123.5q-145 -170 -350 -170q-168 0 -265 136.5t-97 343.5zM602 516q0 -66 33 -110 t88 -44q70 0 121 63.5t51 147.5q0 66 -34 110t-87 44q-72 0 -122 -62.5t-50 -148.5z" />
<glyph unicode="e" horiz-adv-x="1189" d="M111 463q0 274 190.5 461.5t474.5 187.5q197 0 319 -99.5t122 -267.5q0 -96 -40 -168.5t-106.5 -110.5t-150.5 -62q-80 -23 -164 -22h-7q-87 1 -171 7q41 -76 198 -76q160 0 293 43l16 -313q-217 -70 -415 -70q-262 0 -410.5 121t-148.5 369zM590 653q39 -2 92 -3h4 q51 0 96 25q47 26 47 75q0 59 -69 59q-129 0 -170 -156z" />
<glyph unicode="f" horiz-adv-x="860" d="M-55 -385l41 299q29 -4 45 -4q39 0 62.5 6t47 33.5t31.5 81.5l98 696h-110l51 358h111q23 139 68.5 232.5t112 140.5t135.5 64.5t157 17.5q166 0 278 -51l-72 -287q-29 4 -47 4q-37 0 -58.5 -6t-45 -33.5t-35.5 -81.5h166l-51 -358h-164l-98 -696q-35 -248 -167 -351.5 t-311 -103.5q-139 0 -245 39z" />
<glyph unicode="g" horiz-adv-x="1366" d="M121 -162q0 102 73.5 185t204.5 124q-127 31 -199.5 143.5t-72.5 268.5q0 229 148.5 391t359.5 162q193 0 297 -141l16 114h475l-129 -913q-45 -315 -206.5 -455.5t-489.5 -140.5q-252 0 -364.5 71.5t-112.5 190.5zM592 -41q0 -86 78 -86q98 0 116 123l21 143 q-8 0 -22.5 -3t-52.5 -15t-65.5 -29.5t-51 -52.5t-23.5 -80zM608 551q0 -61 31 -102t82 -41q63 0 111.5 59t48.5 139q0 61 -31 102.5t-84 41.5q-66 0 -112 -59.5t-46 -139.5z" />
<glyph unicode="h" horiz-adv-x="1419" d="M96 0l213 1513h498l-74 -528q133 127 316 127q170 0 260 -105q72 -84 72 -207q0 -30 -5 -63l-51 -354q-2 -11 -2 -20q0 -38 28 -52q17 -8 39 -8t50 8l-43 -299q-117 -39 -287 -39q-164 0 -240 87q-60 69 -59 165q0 26 4 54l49 342l2 16q0 31 -19 54q-24 30 -63 30 q-37 0 -66.5 -29.5t-35.5 -70.5l-88 -621h-498z" />
<glyph unicode="i" horiz-adv-x="741" d="M135 279l113 806h497l-100 -712q-2 -9 -1 -17q0 -33 28 -45q17 -7 39 -7t49 7l-43 -299q-117 -39 -287 -39q-164 0 -239 86q-60 69 -59 169q-1 25 3 51zM260 1190l45 323h508l-45 -323h-508z" />
<glyph unicode="j" horiz-adv-x="692" d="M-125 -385l41 299q29 -4 45 -4q39 0 62.5 6t47 33.5t31.5 81.5l150 1054h493l-147 -1054q-35 -248 -167 -351.5t-310 -103.5q-140 0 -246 39zM262 1190l45 323h508l-45 -323h-508z" />
<glyph unicode="k" horiz-adv-x="1331" d="M96 0l213 1513h498l-111 -778q86 53 147.5 132t90.5 218h479q-8 -162 -88 -281.5t-240 -217.5q61 -152 105 -201q58 -66 141 -66q17 0 35 3l-43 -310q-117 -39 -236 -39q-139 0 -241.5 96.5t-194.5 344.5l-57 -414h-498z" />
<glyph unicode="l" horiz-adv-x="776" d="M158 428l153 1085h494l-152 -1085q-3 -19 -3 -34q0 -29 10 -47q15 -28 38 -34t60 -6q20 0 49 4l-43 -299q-117 -39 -260 -39q-82 0 -147.5 21.5t-120 70t-75.5 140.5q-12 50 -12 110q0 53 9 113z" />
<glyph unicode="m" horiz-adv-x="2050" d="M96 0l152 1085h475l-14 -110q61 61 153 99t187 38q203 0 282 -158q59 59 162.5 108.5t218.5 49.5q176 0 262 -104q67 -81 67 -200q0 -34 -5 -71l-51 -354q-2 -11 -2 -20q0 -38 27 -52q17 -8 39.5 -8t49.5 8l-43 -299q-117 -39 -287 -39q-164 0 -239 87q-60 69 -60 165 q0 26 5 54l49 342q1 9 1 18q0 30 -16 52q-20 30 -59 30q-37 0 -64.5 -28.5t-33.5 -71.5l-88 -621h-498l88 621q1 9 1 18q0 30 -15 52q-20 30 -60 30q-37 0 -64.5 -28.5t-33.5 -71.5l-88 -621h-498z" />
<glyph unicode="n" horiz-adv-x="1404" d="M96 0l152 1085h481l-14 -106q145 133 342 133q164 0 253 -106q71 -85 71 -206q0 -30 -5 -63l-51 -354q-2 -11 -2 -20q0 -38 28 -52q17 -8 39 -8t50 8l-43 -299q-117 -39 -287 -39q-164 0 -240 87q-60 69 -59 165q0 26 4 54l49 342l2 16q0 31 -19 54q-24 30 -63 30 q-37 0 -66.5 -29.5t-35.5 -70.5l-88 -621h-498z" />
<glyph unicode="o" horiz-adv-x="1331" d="M113 469q0 195 101 344.5t261 224t348 74.5q236 0 391.5 -134t155.5 -364q0 -289 -210 -465t-496 -176q-240 0 -395.5 133.5t-155.5 362.5zM594 512q0 -70 31.5 -115t89.5 -45q72 0 123 66.5t51 154.5q0 70 -32 115t-89 45q-72 0 -123 -66.5t-51 -154.5z" />
<glyph unicode="p" horiz-adv-x="1370" d="M41 -397l209 1482h477l-20 -139q150 166 337 166q166 0 263.5 -136t97.5 -343q0 -272 -153.5 -466t-385.5 -194q-162 0 -256 133l-71 -503h-498zM627 516q0 -66 32.5 -110t88.5 -44q72 0 122 62.5t50 148.5q0 66 -33 110t-88 44q-72 0 -122 -62.5t-50 -148.5z" />
<glyph unicode="q" horiz-adv-x="1370" d="M117 449q0 274 151.5 468.5t370.5 194.5q186 0 291 -166l18 139h475l-206 -1482h-496l70 508q-137 -137 -312 -138q-166 0 -264 135.5t-98 340.5zM602 516q0 -66 34 -110t89 -44q70 0 120 62.5t50 148.5q0 66 -33 110t-86 44q-72 0 -123 -62.5t-51 -148.5z" />
<glyph unicode="r" horiz-adv-x="927" d="M96 0l152 1085h465l-27 -192q14 25 22.5 38t26 39.5t33.5 43t39.5 37t49.5 32t55.5 20.5t66.5 9t78 -10l-60 -426q-34 5 -64 5q-102 0 -170 -52q-89 -68 -112 -223l-57 -406h-498z" />
<glyph unicode="s" horiz-adv-x="1064" d="M59 98l88 312q61 -49 152.5 -80t171.5 -31q100 0 100 39q0 18 -41 29.5t-99 26t-115.5 40t-98.5 91t-41 165.5q0 201 153.5 311.5t403.5 110.5q209 0 395 -88l-86 -297q-135 66 -280 66q-96 0 -96 -35q0 -20 42 -32.5t101 -27t117.5 -41t100.5 -94t42 -168.5 q0 -199 -149.5 -310.5t-399.5 -111.5q-258 0 -461 125z" />
<glyph unicode="t" horiz-adv-x="913" d="M156 727l51 358h106l35 252h496l-35 -252h180l-51 -358h-180l-41 -289q-2 -12 -2 -23q0 -42 25 -65q32 -29 83 -28q33 0 88 10l-41 -295q-150 -63 -340 -64q-333 0 -333 265q0 34 6 73l59 416h-106z" />
<glyph unicode="u" horiz-adv-x="1390" d="M137 348l105 737h495l-88 -620q-1 -9 -1 -17q0 -30 18 -54q23 -30 61 -29q37 0 67.5 29.5t36.5 70.5l89 620h495l-96 -690q-2 -14 -2 -25q0 -42 23 -56q16 -10 43 -9q22 0 51 6l-43 -299q-117 -39 -287 -39q-223 0 -283 156q-168 -156 -366 -156q-162 0 -251 107 q-71 85 -71 205q-1 30 4 63z" />
<glyph unicode="v" horiz-adv-x="1351" d="M156 436l90 649h495l-88 -620q-2 -11 -1 -22q0 -29 13 -50q17 -29 54 -28q66 0 114 87t58 246q2 23 1 49q0 145 -50 338h487q35 -174 38 -322v-28q0 -131 -26 -228q-29 -108 -74.5 -195t-112.5 -143t-135.5 -96t-147 -60.5t-144 -30t-129.5 -9.5q-248 0 -359 122 q-89 97 -89 256q0 40 6 85z" />
<glyph unicode="w" horiz-adv-x="1929" d="M147 436l91 649h485l-86 -620q-2 -17 -2 -31q0 -70 59 -69q70 0 84 94l88 626h486l-88 -620q-2 -16 -3 -30q0 -70 62 -70q63 0 109.5 85t54.5 245q1 19 1 39q0 149 -54 351h485q22 -147 22 -270q0 -45 -3 -88q-11 -158 -36.5 -274.5t-82 -200.5t-114.5 -138.5t-135 -85 t-145.5 -43t-144.5 -12.5q-137 0 -219 42t-139 135q-135 -176 -392 -177q-209 0 -311 121q-79 93 -79 245q0 46 7 97z" />
<glyph unicode="x" horiz-adv-x="1314" d="M-10 0l418 567l-232 518h479l115 -284l193 284h479l-373 -518l256 -567h-528l-95 324l-184 -324h-528z" />
<glyph unicode="y" horiz-adv-x="1353" d="M111 -164q0 102 68.5 183t193.5 124q-129 10 -187 85q-45 58 -44 147q0 25 3 53l93 657h495l-82 -587q-1 -9 -1 -18q0 -32 18 -55q23 -30 61 -30q37 0 67.5 30t37.5 73l81 587h498l-129 -913q-45 -315 -207 -455.5t-485 -140.5q-481 0 -481 260zM580 -49q0 -78 71 -78 q92 0 111 121l20 145q-8 -2 -21 -4t-49 -16.5t-62.5 -32.5t-48 -54t-21.5 -81z" />
<glyph unicode="z" horiz-adv-x="1179" d="M35 -141q0 90 52 164.5t130 115.5t156 62.5t143 21.5q-33 18 -107 25q-37 3 -69.5 3t-58.5 -3l-68 268q293 63 410.5 107.5t117.5 91.5q0 45 -92 45q-164 0 -379 -92l-73 313q330 131 581 131q217 0 329 -88t112 -229q0 -123 -88.5 -212t-264.5 -167q141 -25 234 -136 q86 -105 86 -250v-20q-6 -201 -175 -317.5t-487 -116.5q-489 0 -489 283zM504 -49q0 -78 82 -78q90 0 125 86q15 37 14 71q0 46 -27 87q-8 -2 -21 -5t-46 -16.5t-58.5 -30t-47 -47t-21.5 -67.5z" />
<glyph unicode="{" horiz-adv-x="831" d="M78 418l33 233q80 4 148.5 40t78.5 104l41 286q53 385 452 385h168l-36 -258h-129q-57 0 -84 -30.5t-37 -96.5l-31 -215q-41 -268 -240 -331q184 -66 146 -332l-31 -215q-18 -127 88 -127h129l-37 -258h-168q-397 0 -344 385l39 286q10 68 -47 103t-139 41z" />
<glyph unicode="|" horiz-adv-x="430" d="M45 -397l262 1863h230l-263 -1863h-229z" />
<glyph unicode="}" horiz-adv-x="831" d="M-16 -397l36 258h130q57 0 83.5 30.5t36.5 96.5l31 215q35 266 240 332q-182 63 -146 331l29 215q10 66 -9.5 96.5t-76.5 30.5h-129l37 258h168q395 0 342 -385l-39 -286q-10 -68 48 -104t138 -40l-33 -233q-84 -6 -150.5 -41t-76.5 -103l-41 -286q-53 -385 -450 -385 h-168z" />
<glyph unicode="~" horiz-adv-x="1304" d="M121 401q10 70 43 145t84 143.5t131 112.5t170 44q96 0 177 -38t140.5 -76t102.5 -38q100 0 168 172h231q-25 -168 -146.5 -316.5t-289.5 -148.5q-76 0 -140.5 24t-101.5 51.5t-86 51t-96 23.5q-55 0 -96 -45t-62 -105h-229z" />
<glyph unicode="&#xa1;" horiz-adv-x="643" d="M35 -299l31 225l172 643h327l-12 -643l-31 -225h-487zM188 676l58 409h456l-57 -409h-457z" />
<glyph unicode="&#xa2;" horiz-adv-x="1069" d="M129 520q0 258 158.5 437.5t417.5 211.5l28 203h195l-29 -203q121 -14 252 -61l-88 -272q-74 29 -178 28q-164 0 -237 -90t-73 -203q0 -90 55.5 -155.5t180.5 -65.5q111 0 186 31l17 -289q-143 -47 -275 -59l-41 -293h-194l43 295q-199 25 -308.5 154.5t-109.5 330.5z " />
<glyph unicode="&#xa3;" horiz-adv-x="1222" d="M104 0l27 184q186 223 182 434h-168l25 162h137q-33 291 137 461t494 170q231 0 414 -68l-131 -380q-119 37 -215 36q-106 0 -157.5 -51t-53.5 -168h272l-25 -162h-251q-6 -115 -60 -243h434l-53 -375h-1008z" />
<glyph unicode="&#xa4;" horiz-adv-x="1349" d="M63 70l199 182q-49 100 -49 240q0 195 135 372l-147 183l182 165l147 -182q145 90 304 90q160 0 278 -90l199 182l135 -165l-199 -183q47 -100 47 -237q0 -199 -133 -375l148 -182l-181 -166l-149 182q-147 -92 -303 -92q-158 0 -279 92l-196 -182zM463 522 q0 -113 71.5 -189.5t178.5 -76.5q131 0 231 101.5t100 236.5q0 113 -69.5 189.5t-177.5 76.5q-131 0 -232.5 -100.5t-101.5 -237.5z" />
<glyph unicode="&#xa5;" horiz-adv-x="1431" d="M211 274l22 162h297l9 58l-39 112h-242l23 162h163l-206 616h485l117 -518l258 518h485l-381 -616h168l-22 -162h-246l-70 -112l-8 -58h299l-23 -162h-299l-38 -274h-494l39 274h-297z" />
<glyph unicode="&#xa6;" horiz-adv-x="536" d="M53 -399l109 778h319l-108 -778h-320zM203 659l98 701h320l-99 -701h-319z" />
<glyph unicode="&#xa7;" horiz-adv-x="1021" d="M61 -176l95 256q164 -80 313 -80q123 0 123 59q0 35 -48 56.5t-118 39t-139.5 42t-117.5 81t-48 140.5q0 90 51 158.5t143 101.5q-68 68 -67 190q0 182 129 289t344 107q168 0 362 -72l-94 -256q-162 63 -284 63q-125 0 -125 -59q0 -29 33.5 -50.5t86 -32.5t111.5 -31.5 t111.5 -45t86 -77t33.5 -123.5q0 -184 -192 -258q76 -68 76 -193q0 -180 -130 -286.5t-341 -106.5q-193 0 -394 88zM467 512q0 -37 39 -56.5t117 -35.5q72 12 71 65q0 37 -33.5 55.5t-119.5 39.5q-74 -13 -74 -68z" />
<glyph unicode="&#xa8;" horiz-adv-x="1120" d="M334 1225l37 268h317l-37 -268h-317zM823 1225l37 268h318l-37 -268h-318z" />
<glyph unicode="&#xa9;" horiz-adv-x="1466" d="M147 651.5q0 278.5 197 475t475.5 196.5t474 -196.5t195.5 -475t-195.5 -474t-474 -195.5t-475.5 195.5t-197 474zM238 651q0 -240 170 -409.5t411 -169.5q240 0 410 170t170 409q0 242 -170 412t-410 170q-242 0 -411.5 -170t-169.5 -412zM451 651q0 166 106.5 265.5 t278.5 99.5q117 0 268 -49l-62 -211q-78 33 -137 32q-72 0 -111.5 -37.5t-39.5 -99.5q0 -59 40 -98t109 -39q59 0 139 33l62 -211q-145 -47 -268 -47q-174 0 -279.5 98t-105.5 264z" />
<glyph unicode="&#xaa;" horiz-adv-x="972" d="M80 791q0 188 106.5 318t259.5 130q111 0 175 -90l10 72h338l-68 -473q-6 -39 15.5 -51.5t62.5 -2.5l-29 -202q-88 -27 -194 -27q-156 0 -193 117q-96 -117 -237 -117q-113 0 -179.5 93.5t-66.5 232.5zM410 834q0 -45 22.5 -75t59.5 -30q47 0 81.5 43t34.5 100 q0 45 -22.5 75t-59.5 30q-49 0 -82.5 -42t-33.5 -101z" />
<glyph unicode="&#xab;" horiz-adv-x="1587" d="M125 549l442 493h439l-478 -493l338 -494h-438zM809 549l444 493h437l-476 -493l336 -494h-436z" />
<glyph unicode="&#xac;" horiz-adv-x="1265" d="M162 684l43 305h1098l-91 -645h-292l47 340h-805z" />
<glyph unicode="&#xad;" horiz-adv-x="829" d="M147 375l46 317h641l-46 -317h-641z" />
<glyph unicode="&#xae;" horiz-adv-x="1447" d="M141 651.5q0 278.5 197 475t475.5 196.5t474 -196.5t195.5 -475t-195.5 -474t-474 -195.5t-475.5 195.5t-197 474zM231 651q0 -240 170 -409.5t412 -169.5q240 0 410 170t170 409q0 242 -170 412t-410 170q-242 0 -412 -170t-170 -412zM504 301v692q150 23 270 23 q385 0 385 -244q0 -115 -100 -178q51 -37 78.5 -101.5t46.5 -191.5h-283q-14 123 -40.5 164t-74.5 43v-207h-282zM780 680q45 -4 77 15.5t32 52t-31 51t-78 14.5v-133z" />
<glyph unicode="&#xaf;" horiz-adv-x="1005" d="M324 1247l28 207h695l-29 -207h-694z" />
<glyph unicode="&#xb0;" horiz-adv-x="729" d="M211 1141q0 127 89 216t216 89t216 -90t89 -215t-89 -215t-216 -90t-216 89t-89 216zM379 1140.5q0 -57.5 40 -97t97 -39.5t97 39.5t40 97t-40 97.5t-97 40t-97 -40t-40 -97.5z" />
<glyph unicode="&#xb1;" horiz-adv-x="1173" d="M86 0l45 317h1002l-46 -317h-1001zM170 602l45 318h346l29 206h309l-29 -206h347l-46 -318h-346l-28 -207h-310l29 207h-346z" />
<glyph unicode="&#xb2;" horiz-adv-x="788" d="M174 860l35 244q39 23 112.5 64.5t112.5 65t84 55.5t65.5 59.5t20.5 54.5q0 47 -88 47q-109 0 -223 -53l-10 239q166 70 340 70q305 0 305 -221q0 -115 -66.5 -195t-206.5 -174h232l-37 -256h-676z" />
<glyph unicode="&#xb3;" horiz-adv-x="788" d="M172 893l64 246q106 -51 206 -52q131 0 131 46q0 39 -71 38h-152l31 220h119q94 0 94 41q0 33 -92 32q-96 0 -191 -39l-4 232q137 49 291 49q145 0 227 -52t82 -157q0 -143 -157 -211q59 -16 100 -65.5t41 -114.5q0 -135 -119 -198.5t-297 -63.5q-180 0 -303 49z" />
<glyph unicode="&#xb4;" horiz-adv-x="821" d="M274 1208l261 318h387l-365 -318h-283z" />
<glyph unicode="&#xb5;" horiz-adv-x="1349" d="M41 -397l209 1482h498l-91 -641q-6 -41 16.5 -70.5t59.5 -29.5q39 0 70 29.5t37 70.5l90 641h495l-153 -1085h-428l14 92q-92 -119 -219 -119q-41 0 -82 19l-55 -389h-461z" />
<glyph unicode="&#xb6;" horiz-adv-x="1140" d="M188 987q0 162 118 279.5t274 117.5h690l-19 -133h-161l-201 -1423h-152l201 1423h-160l-200 -1423h-150l121 848h-68q-127 0 -210 89t-83 222z" />
<glyph unicode="&#xb7;" horiz-adv-x="643" d="M156 444l57 410h457l-58 -410h-456z" />
<glyph unicode="&#xb8;" horiz-adv-x="661" d="M10 -424l68 119q246 -55 246 57q0 57 -158 68l172 246l158 16l-154 -201q88 -4 146.5 -46t58.5 -109q0 -84 -73 -143.5t-200 -59.5q-143 0 -264 53z" />
<glyph unicode="&#xb9;" horiz-adv-x="788" d="M299 1329l27 184q229 0 266 179h256l-117 -832h-307l65 469h-190z" />
<glyph unicode="&#xba;" horiz-adv-x="905" d="M76 803q0 197 143 316.5t340 119.5q162 0 267.5 -90t105.5 -248q0 -197 -143.5 -316.5t-337.5 -119.5q-162 0 -268.5 91t-106.5 247zM403 831q0 -47 21.5 -77.5t60.5 -30.5q49 0 84 45t35 104q0 47 -21.5 78t-60.5 31q-49 0 -84 -45.5t-35 -104.5z" />
<glyph unicode="&#xbb;" horiz-adv-x="1587" d="M53 55l475 494l-335 493h438l303 -493l-442 -494h-439zM737 55l477 494l-337 493h438l303 -493l-442 -494h-439z" />
<glyph unicode="&#xbc;" horiz-adv-x="2168" d="M287 1044l24 185q231 0 269 178h258l-119 -832h-309l67 469h-190zM494 -39l1079 1473h297l-1079 -1473h-297zM1307 150l32 231l369 450h363l-64 -448h76l-33 -233h-76l-20 -150h-289l21 150h-379zM1587 377h137l29 207z" />
<glyph unicode="&#xbd;" horiz-adv-x="2168" d="M258 1044l25 185q231 0 268 178h256l-119 -832h-307l68 469h-191zM465 -39l1077 1473h299l-1079 -1473h-297zM1397 0l35 244q37 23 112.5 64.5t112.5 64t84 55.5t66.5 60.5t19.5 54.5q0 47 -88 47q-106 0 -221 -53l-13 239q170 70 342 70q305 0 305 -221 q0 -115 -66.5 -194t-205.5 -175h231l-36 -256h-678z" />
<glyph unicode="&#xbe;" horiz-adv-x="2168" d="M188 608l66 246q106 -51 207 -51q131 0 131 45q0 39 -72 39h-151l30 219h119q92 0 92 41q0 33 -90 33q-96 0 -190 -39l-4 231q137 49 288 49q145 0 228.5 -52t83.5 -157q0 -141 -158 -211q59 -16 100 -65t41 -115q0 -135 -119.5 -198.5t-297.5 -63.5q-181 0 -304 49z M514 -39l1077 1473h299l-1079 -1473h-297zM1346 150l30 231l369 450h362l-61 -448h76l-33 -233h-76l-22 -150h-289l22 150h-378zM1624 377h137l29 207z" />
<glyph unicode="&#xbf;" horiz-adv-x="1001" d="M49 -39q0 78 32 147.5t79 121t95 97.5t85 97t45 102l6 43h389l-10 -69q-8 -57 -48 -114.5t-82 -98.5t-77 -93.5t-35 -99.5q0 -37 23.5 -52t83.5 -15q119 0 272 57l17 -326q-217 -84 -449 -84q-426 0 -426 287zM367 676l57 409h457l-58 -409h-456z" />
<glyph unicode="&#xc0;" d="M-25 0l654 1384h604l266 -1384h-508l-26 231h-390l-90 -231h-510zM569 1825h387l168 -318h-280zM705 555h221l-52 426z" />
<glyph unicode="&#xc1;" d="M-25 0l654 1384h604l266 -1384h-508l-26 231h-390l-90 -231h-510zM705 555h221l-52 426zM752 1507l260 318h387l-365 -318h-282z" />
<glyph unicode="&#xc2;" d="M-25 0l654 1384h604l266 -1384h-508l-26 231h-390l-90 -231h-510zM528 1507l277 318h377l186 -318h-283l-116 144l-158 -144h-283zM705 555h221l-52 426z" />
<glyph unicode="&#xc3;" d="M-25 0l654 1384h604l266 -1384h-508l-26 231h-390l-90 -231h-510zM551 1503q16 111 99 213.5t192 102.5q84 0 163.5 -51.5t110.5 -51.5q29 0 59.5 32t51.5 81h162q-20 -121 -107.5 -226.5t-189.5 -105.5q-80 0 -158 50t-119 50q-31 0 -60.5 -27.5t-45.5 -66.5h-158z M705 555h221l-52 426z" />
<glyph unicode="&#xc4;" d="M-25 0l654 1384h604l266 -1384h-508l-26 231h-390l-90 -231h-510zM549 1524l37 268h317l-37 -268h-317zM705 555h221l-52 426zM1040 1524l37 268h318l-37 -268h-318z" />
<glyph unicode="&#xc5;" d="M-25 0l654 1384h604l266 -1384h-508l-26 231h-390l-90 -231h-510zM705 555h221l-52 426zM733 1659q0 115 82 187.5t193 72.5q90 0 149.5 -55.5t59.5 -147.5q0 -115 -82 -187.5t-193 -72.5q-90 0 -149.5 55.5t-59.5 147.5zM872 1673q0 -39 25 -62.5t64 -23.5q49 0 81.5 33 t32.5 82q0 39 -23.5 62.5t-62.5 23.5q-49 0 -83 -33t-34 -82z" />
<glyph unicode="&#xc6;" horiz-adv-x="2039" d="M-59 0l890 1384h1321l-55 -389h-555l-8 -121h463l-51 -360h-439l-8 -127h514l-55 -387h-946l14 223h-434l-139 -223h-512zM797 555h254l32 440h-12z" />
<glyph unicode="&#xc7;" horiz-adv-x="1294" d="M143 604q0 358 236.5 582.5t605.5 224.5q223 0 457 -86l-152 -367q-106 51 -243 52q-178 0 -281.5 -98.5t-103.5 -254.5q0 -135 80.5 -205.5t228.5 -70.5q139 0 260 51l45 -373q-258 -86 -479 -86h-19l-69 -92q88 -4 146 -46t58 -109q0 -84 -72.5 -143.5t-199.5 -59.5 q-143 0 -264 53l67 119q246 -55 246 57q0 57 -158 68l115 166q-238 37 -371 196.5t-133 421.5z" />
<glyph unicode="&#xc8;" horiz-adv-x="1280" d="M113 0l194 1384h1086l-56 -389h-592l-16 -121h518l-51 -360h-518l-16 -127h591l-55 -387h-1085zM496 1825h387l168 -318h-281z" />
<glyph unicode="&#xc9;" horiz-adv-x="1280" d="M113 0l194 1384h1086l-56 -389h-592l-16 -121h518l-51 -360h-518l-16 -127h591l-55 -387h-1085zM633 1507l260 318h387l-365 -318h-282z" />
<glyph unicode="&#xca;" horiz-adv-x="1280" d="M113 0l194 1384h1086l-56 -389h-592l-16 -121h518l-51 -360h-518l-16 -127h591l-55 -387h-1085zM446 1507l277 318h377l186 -318h-280l-119 144l-158 -144h-283z" />
<glyph unicode="&#xcb;" horiz-adv-x="1280" d="M113 0l194 1384h1086l-56 -389h-592l-16 -121h518l-51 -360h-518l-16 -127h591l-55 -387h-1085zM471 1524l37 268h317l-37 -268h-317zM963 1524l36 268h318l-37 -268h-317z" />
<glyph unicode="&#xcc;" horiz-adv-x="733" d="M113 0l194 1384h508l-194 -1384h-508zM223 1825h387l168 -318h-280z" />
<glyph unicode="&#xcd;" horiz-adv-x="733" d="M113 0l194 1384h508l-194 -1384h-508zM381 1507l258 318h387l-364 -318h-281z" />
<glyph unicode="&#xce;" horiz-adv-x="733" d="M113 0l194 1384h508l-194 -1384h-508zM156 1507l276 318h379l186 -318h-282l-117 144l-160 -144h-282z" />
<glyph unicode="&#xcf;" horiz-adv-x="733" d="M113 0l194 1384h508l-194 -1384h-508zM178 1524l37 268h317l-36 -268h-318zM668 1524l37 268h317l-37 -268h-317z" />
<glyph unicode="&#xd0;" horiz-adv-x="1542" d="M94 606l29 205h127l80 565q225 35 510 35q348 0 552.5 -166t204.5 -463q0 -145 -35.5 -264t-96 -200.5t-145.5 -145t-174 -100.5t-193.5 -59.5t-193.5 -31t-184 -8.5q-190 0 -438 29l84 604h-127zM694 367q12 -2 56 -2q166 0 250.5 115.5t84.5 289.5q0 125 -61 193.5 t-176 68.5q-47 0 -62 -2l-30 -219h202l-28 -205h-203z" />
<glyph unicode="&#xd1;" horiz-adv-x="1583" d="M113 0l194 1384h506l289 -706l98 706h465l-195 -1384h-479l-313 711l-100 -711h-465zM623 1503q16 111 99 213.5t191 102.5q84 0 165 -51.5t110 -51.5t60.5 33t49.5 80h162q-20 -121 -107 -226.5t-190 -105.5q-80 0 -157.5 50t-118.5 50q-31 0 -60.5 -27.5t-46.5 -66.5 h-157z" />
<glyph unicode="&#xd2;" horiz-adv-x="1593" d="M141 600q0 360 241 585.5t609 225.5q305 0 480.5 -164t175.5 -463q0 -360 -241 -585.5t-609 -225.5q-305 0 -480.5 164t-175.5 463zM653 631q0 -260 197 -260q137 0 211 107.5t74 277.5q0 258 -197 258q-137 0 -211 -107.5t-74 -275.5zM657 1825h387l168 -318h-282z" />
<glyph unicode="&#xd3;" horiz-adv-x="1593" d="M141 600q0 360 241 585.5t609 225.5q305 0 480.5 -164t175.5 -463q0 -360 -241 -585.5t-609 -225.5q-305 0 -480.5 164t-175.5 463zM653 631q0 -260 197 -260q137 0 211 107.5t74 277.5q0 258 -197 258q-137 0 -211 -107.5t-74 -275.5zM791 1507l260 318h387l-365 -318 h-282z" />
<glyph unicode="&#xd4;" horiz-adv-x="1593" d="M141 600q0 360 241 585.5t609 225.5q305 0 480.5 -164t175.5 -463q0 -360 -241 -585.5t-609 -225.5q-305 0 -480.5 164t-175.5 463zM586 1507l276 318h379l186 -318h-282l-117 144l-160 -144h-282zM653 631q0 -260 197 -260q137 0 211 107.5t74 277.5q0 258 -197 258 q-137 0 -211 -107.5t-74 -275.5z" />
<glyph unicode="&#xd5;" horiz-adv-x="1593" d="M141 600q0 360 241 585.5t609 225.5q305 0 480.5 -164t175.5 -463q0 -360 -241 -585.5t-609 -225.5q-305 0 -480.5 164t-175.5 463zM610 1503q16 111 98.5 213.5t190.5 102.5q86 0 166 -51.5t108.5 -51.5t60.5 32t52 81h160q-20 -121 -106.5 -226.5t-188.5 -105.5 q-80 0 -158 50t-121 50q-31 0 -60.5 -28.5t-43.5 -65.5h-158zM653 631q0 -260 197 -260q137 0 211 107.5t74 277.5q0 258 -197 258q-137 0 -211 -107.5t-74 -275.5z" />
<glyph unicode="&#xd6;" horiz-adv-x="1593" d="M141 600q0 360 241 585.5t609 225.5q305 0 480.5 -164t175.5 -463q0 -360 -241 -585.5t-609 -225.5q-305 0 -480.5 164t-175.5 463zM608 1524l37 268h318l-37 -268h-318zM653 631q0 -260 197 -260q137 0 211 107.5t74 277.5q0 258 -197 258q-137 0 -211 -107.5 t-74 -275.5zM1098 1524l37 268h317l-37 -268h-317z" />
<glyph unicode="&#xd7;" horiz-adv-x="1085" d="M90 240l311 284l-233 287l246 225l231 -286l313 286l185 -231l-314 -287l232 -287l-242 -223l-231 287l-314 -287z" />
<glyph unicode="&#xd8;" horiz-adv-x="1593" d="M141 594q0 367 241 592t611 225q215 0 367 -82l133 160l82 -72l-125 -145q197 -160 197 -481q0 -367 -241 -592.5t-611 -225.5q-213 0 -369 80l-133 -157l-82 69l125 148q-195 162 -195 481zM653 623q0 -78 13 -117l395 471q-43 37 -121 37q-139 0 -213 -106.5 t-74 -284.5zM725 408q45 -37 125 -37q137 0 211 105.5t74 275.5q0 76 -15 127z" />
<glyph unicode="&#xd9;" horiz-adv-x="1468" d="M176 547l117 837h508l-117 -831q-12 -82 9.5 -127t94.5 -45q76 0 108 44t44 128l117 831h508l-117 -837q-41 -289 -225.5 -431.5t-491.5 -142.5t-451.5 142.5t-103.5 431.5zM594 1825h387l170 -318h-283z" />
<glyph unicode="&#xda;" horiz-adv-x="1468" d="M176 547l117 837h508l-117 -831q-12 -82 9.5 -127t94.5 -45q76 0 108 44t44 128l117 831h508l-117 -837q-41 -289 -225.5 -431.5t-491.5 -142.5t-451.5 142.5t-103.5 431.5zM762 1507l258 318h387l-363 -318h-282z" />
<glyph unicode="&#xdb;" horiz-adv-x="1468" d="M176 547l117 837h508l-117 -831q-12 -82 9.5 -127t94.5 -45q76 0 108 44t44 128l117 831h508l-117 -837q-41 -289 -225.5 -431.5t-491.5 -142.5t-451.5 142.5t-103.5 431.5zM526 1507l277 318h377l186 -318h-281l-118 144l-158 -144h-283z" />
<glyph unicode="&#xdc;" horiz-adv-x="1468" d="M176 547l117 837h508l-117 -831q-12 -82 9.5 -127t94.5 -45q76 0 108 44t44 128l117 831h508l-117 -837q-41 -289 -225.5 -431.5t-491.5 -142.5t-451.5 142.5t-103.5 431.5zM545 1524l37 268h317l-37 -268h-317zM1036 1524l37 268h318l-37 -268h-318z" />
<glyph unicode="&#xdd;" horiz-adv-x="1390" d="M160 1384h514l143 -499l291 499h510l-598 -890l-70 -494h-508l70 494zM668 1507l260 318h387l-365 -318h-282z" />
<glyph unicode="&#xde;" horiz-adv-x="1398" d="M113 0l194 1384h498l-23 -159q676 -20 676 -459q0 -158 -71.5 -276.5t-191.5 -184t-261 -96.5t-297 -27l-27 -182h-497zM688 553q39 -2 80 2t87 18.5t74.5 52.5t28.5 93q0 80 -77.5 108.5t-151.5 18.5z" />
<glyph unicode="&#xdf;" horiz-adv-x="1447" d="M96 0l135 967q33 240 221.5 406.5t508.5 166.5q231 0 384.5 -112.5t153.5 -284.5q0 -127 -72.5 -233.5t-181.5 -155.5q104 -37 159.5 -121t55.5 -197q0 -129 -49 -222t-136 -143.5t-186.5 -74t-218.5 -23.5q-106 0 -198 19l94 356q37 -4 68 -4q68 0 112.5 31t44.5 88 q0 45 -32.5 70.5t-90.5 25.5h-65l51 359h23q74 0 122 33.5t48 101.5q0 43 -36 73.5t-106 30.5q-90 0 -141 -52t-64 -134l-137 -971h-467z" />
<glyph unicode="&#xe0;" horiz-adv-x="1429" d="M117 453q0 274 156.5 466.5t381.5 192.5q162 0 258 -133l15 106h495l-98 -698q-8 -57 22.5 -73.5t92.5 -2.5l-43 -299q-117 -39 -287 -39q-111 0 -183.5 46.5t-97.5 123.5q-63 -76 -159.5 -123t-190.5 -47q-168 0 -265 136.5t-97 343.5zM514 1526h387l170 -318h-283z M602 516q0 -66 33 -110t88 -44q70 0 121 63.5t51 147.5q0 66 -34 110t-87 44q-72 0 -122 -62.5t-50 -148.5z" />
<glyph unicode="&#xe1;" horiz-adv-x="1429" d="M117 453q0 274 156.5 466.5t381.5 192.5q162 0 258 -133l15 106h495l-98 -698q-8 -57 22.5 -73.5t92.5 -2.5l-43 -299q-117 -39 -287 -39q-111 0 -183.5 46.5t-97.5 123.5q-63 -76 -159.5 -123t-190.5 -47q-168 0 -265 136.5t-97 343.5zM602 516q0 -66 33 -110t88 -44 q70 0 121 63.5t51 147.5q0 66 -34 110t-87 44q-72 0 -122 -62.5t-50 -148.5zM608 1208l258 318h387l-364 -318h-281z" />
<glyph unicode="&#xe2;" horiz-adv-x="1429" d="M117 453q0 274 156.5 466.5t381.5 192.5q162 0 258 -133l15 106h495l-98 -698q-8 -57 22.5 -73.5t92.5 -2.5l-43 -299q-117 -39 -287 -39q-111 0 -183.5 46.5t-97.5 123.5q-63 -76 -159.5 -123t-190.5 -47q-168 0 -265 136.5t-97 343.5zM428 1208l277 318h378l187 -318 h-283l-119 144l-157 -144h-283zM602 516q0 -66 33 -110t88 -44q70 0 121 63.5t51 147.5q0 66 -34 110t-87 44q-72 0 -122 -62.5t-50 -148.5z" />
<glyph unicode="&#xe3;" horiz-adv-x="1429" d="M117 453q0 274 156.5 466.5t381.5 192.5q162 0 258 -133l15 106h495l-98 -698q-8 -57 22.5 -73.5t92.5 -2.5l-43 -299q-117 -39 -287 -39q-111 0 -183.5 46.5t-97.5 123.5q-63 -76 -159.5 -123t-190.5 -47q-168 0 -265 136.5t-97 343.5zM459 1204q16 111 99 213.5 t192 102.5q84 0 164.5 -51.5t109.5 -51.5t60.5 33t50.5 80h161q-20 -121 -106 -226.5t-189 -105.5q-82 0 -158.5 50t-119.5 50q-31 0 -60.5 -27.5t-46.5 -66.5h-157zM602 516q0 -66 33 -110t88 -44q70 0 121 63.5t51 147.5q0 66 -34 110t-87 44q-72 0 -122 -62.5t-50 -148.5 z" />
<glyph unicode="&#xe4;" horiz-adv-x="1429" d="M117 453q0 274 156.5 466.5t381.5 192.5q162 0 258 -133l15 106h495l-98 -698q-8 -57 22.5 -73.5t92.5 -2.5l-43 -299q-117 -39 -287 -39q-111 0 -183.5 46.5t-97.5 123.5q-63 -76 -159.5 -123t-190.5 -47q-168 0 -265 136.5t-97 343.5zM459 1225l37 268h315l-37 -268 h-315zM602 516q0 -66 33 -110t88 -44q70 0 121 63.5t51 147.5q0 66 -34 110t-87 44q-72 0 -122 -62.5t-50 -148.5zM948 1225l37 268h318l-37 -268h-318z" />
<glyph unicode="&#xe5;" horiz-adv-x="1429" d="M117 453q0 274 156.5 466.5t381.5 192.5q162 0 258 -133l15 106h495l-98 -698q-8 -57 22.5 -73.5t92.5 -2.5l-43 -299q-117 -39 -287 -39q-111 0 -183.5 46.5t-97.5 123.5q-63 -76 -159.5 -123t-190.5 -47q-168 0 -265 136.5t-97 343.5zM602 516q0 -66 33 -110t88 -44 q70 0 121 63.5t51 147.5q0 66 -34 110t-87 44q-72 0 -122 -62.5t-50 -148.5zM610 1403q0 115 83 187.5t192 72.5q90 0 149.5 -55.5t59.5 -147.5q0 -115 -82 -187.5t-193 -72.5q-90 0 -149.5 56.5t-59.5 146.5zM750 1419q0 -39 24.5 -63.5t63.5 -24.5q49 0 82.5 32t33.5 81 q0 39 -24.5 63.5t-63.5 24.5q-47 0 -81.5 -33t-34.5 -80z" />
<glyph unicode="&#xe6;" horiz-adv-x="1853" d="M76 285q0 186 130 286.5t367 100.5q115 0 197 -21q4 20 4 27q0 84 -168 84q-176 0 -332 -60l-22 324q225 86 455 86q260 0 372 -151q156 152 369 151q197 0 318.5 -99.5t121.5 -267.5q0 -98 -41 -170.5t-106.5 -109.5t-150.5 -60.5t-172 -21.5t-169 6q41 -76 199 -76 q160 0 293 43l16 -313q-174 -70 -385 -70q-274 0 -405 191q-190 -190 -490 -191q-190 0 -295.5 88.5t-105.5 223.5zM553 334q0 -72 76 -72q102 0 125 141l6 37q-27 6 -72 6q-61 0 -98 -30.5t-37 -81.5zM1262 653q76 -12 157.5 8.5t81.5 88.5q0 59 -69 59q-129 0 -170 -156z " />
<glyph unicode="&#xe7;" horiz-adv-x="1048" d="M117 461q0 283 185 467t480 184q178 0 371 -74l-111 -336q-94 43 -194 43q-127 0 -183.5 -68.5t-56.5 -156.5q0 -70 48.5 -120t146.5 -50q106 0 205 45l14 -350q-193 -68 -371 -72l-67 -92q88 -4 146 -46t58 -109q0 -84 -71.5 -143.5t-198.5 -59.5q-141 0 -266 53l67 119 q246 -55 246 57q0 57 -157 68l112 162q-188 29 -295.5 157.5t-107.5 321.5z" />
<glyph unicode="&#xe8;" horiz-adv-x="1189" d="M111 463q0 274 190.5 461.5t474.5 187.5q197 0 319 -99.5t122 -267.5q0 -96 -40 -168.5t-106.5 -110.5t-150.5 -61.5t-171 -22.5t-171 7q41 -76 198 -76q160 0 293 43l16 -313q-217 -70 -415 -70q-262 0 -410.5 121t-148.5 369zM416 1526h387l170 -318h-283zM590 653 q39 -2 92 -3t100 24.5t47 75.5q0 59 -69 59q-129 0 -170 -156z" />
<glyph unicode="&#xe9;" horiz-adv-x="1189" d="M111 463q0 274 190.5 461.5t474.5 187.5q197 0 319 -99.5t122 -267.5q0 -96 -40 -168.5t-106.5 -110.5t-150.5 -61.5t-171 -22.5t-171 7q41 -76 198 -76q160 0 293 43l16 -313q-217 -70 -415 -70q-262 0 -410.5 121t-148.5 369zM535 1208l256 318h387l-363 -318h-280z M590 653q39 -2 92 -3t100 24.5t47 75.5q0 59 -69 59q-129 0 -170 -156z" />
<glyph unicode="&#xea;" horiz-adv-x="1189" d="M111 463q0 274 190.5 461.5t474.5 187.5q197 0 319 -99.5t122 -267.5q0 -96 -40 -168.5t-106.5 -110.5t-150.5 -61.5t-171 -22.5t-171 7q41 -76 198 -76q160 0 293 43l16 -313q-217 -70 -415 -70q-262 0 -410.5 121t-148.5 369zM346 1208l275 318h378l189 -318h-283 l-121 144l-155 -144h-283zM590 653q39 -2 92 -3t100 24.5t47 75.5q0 59 -69 59q-129 0 -170 -156z" />
<glyph unicode="&#xeb;" horiz-adv-x="1189" d="M111 463q0 274 190.5 461.5t474.5 187.5q197 0 319 -99.5t122 -267.5q0 -96 -40 -168.5t-106.5 -110.5t-150.5 -61.5t-171 -22.5t-171 7q41 -76 198 -76q160 0 293 43l16 -313q-217 -70 -415 -70q-262 0 -410.5 121t-148.5 369zM365 1225l36 268h318l-37 -268h-317z M590 653q39 -2 92 -3t100 24.5t47 75.5q0 59 -69 59q-129 0 -170 -156zM854 1225l37 268h317l-37 -268h-317z" />
<glyph unicode="&#xec;" horiz-adv-x="690" d="M135 279l113 806h497l-100 -712q-8 -47 27 -61.5t88 -0.5l-43 -299q-117 -39 -287 -39q-164 0 -238.5 86.5t-56.5 219.5zM168 1526h387l170 -318h-283z" />
<glyph unicode="&#xed;" horiz-adv-x="690" d="M135 279l113 806h497l-100 -712q-8 -47 27 -61.5t88 -0.5l-43 -299q-117 -39 -287 -39q-164 0 -238.5 86.5t-56.5 219.5zM315 1208l260 318h388l-365 -318h-283z" />
<glyph unicode="&#xee;" horiz-adv-x="690" d="M94 1208l277 318h377l186 -318h-281l-118 144l-158 -144h-283zM135 279l113 806h497l-100 -712q-8 -47 27 -61.5t88 -0.5l-43 -299q-117 -39 -287 -39q-164 0 -238.5 86.5t-56.5 219.5z" />
<glyph unicode="&#xef;" horiz-adv-x="690" d="M113 1225l37 268h317l-37 -268h-317zM135 279l113 806h497l-100 -712q-8 -47 27 -61.5t88 -0.5l-43 -299q-117 -39 -287 -39q-164 0 -238.5 86.5t-56.5 219.5zM604 1225l37 268h317l-36 -268h-318z" />
<glyph unicode="&#xf0;" horiz-adv-x="1236" d="M115 444q0 240 153.5 403t360.5 163q166 0 258 -101q-45 143 -150 260l-299 -118l-26 127l223 88q-82 66 -213 133l434 100q80 -45 139 -92l183 74l28 -127l-110 -45q182 -215 182 -582q0 -182 -55.5 -328.5t-150.5 -237.5t-213 -139.5t-249 -48.5q-215 0 -355 123 t-140 348zM553 467q0 -59 29.5 -101t81.5 -42q63 0 109 59t46 137q0 59 -29.5 100.5t-80.5 41.5q-63 0 -109.5 -59.5t-46.5 -135.5z" />
<glyph unicode="&#xf1;" horiz-adv-x="1404" d="M96 0l152 1085h481l-14 -106q145 133 342 133q164 0 253 -106.5t66 -268.5l-51 -354q-8 -55 25.5 -71.5t89.5 -0.5l-43 -299q-117 -39 -287 -39q-164 0 -239.5 87t-55.5 219l49 342q6 41 -17.5 70.5t-62.5 29.5q-37 0 -66.5 -29.5t-35.5 -70.5l-88 -621h-498zM459 1204 q16 111 97 213.5t189 102.5q84 0 165 -51.5t110 -51.5t61.5 33t48.5 80h162q-18 -121 -105 -226.5t-190 -105.5q-82 0 -158.5 50t-119.5 50q-31 0 -59.5 -27.5t-43.5 -66.5h-157z" />
<glyph unicode="&#xf2;" horiz-adv-x="1331" d="M113 469q0 195 101 344.5t261 224t348 74.5q236 0 391.5 -134t155.5 -364q0 -289 -210 -465t-496 -176q-240 0 -395.5 133.5t-155.5 362.5zM469 1526h387l170 -318h-283zM594 512q0 -70 31.5 -115t89.5 -45q72 0 123 66.5t51 154.5q0 70 -32 115t-89 45q-72 0 -123 -66.5 t-51 -154.5z" />
<glyph unicode="&#xf3;" horiz-adv-x="1331" d="M113 469q0 195 101 344.5t261 224t348 74.5q236 0 391.5 -134t155.5 -364q0 -289 -210 -465t-496 -176q-240 0 -395.5 133.5t-155.5 362.5zM594 512q0 -70 31.5 -115t89.5 -45q72 0 123 66.5t51 154.5q0 70 -32 115t-89 45q-72 0 -123 -66.5t-51 -154.5zM614 1208 l258 318h388l-365 -318h-281z" />
<glyph unicode="&#xf4;" horiz-adv-x="1331" d="M113 469q0 195 101 344.5t261 224t348 74.5q236 0 391.5 -134t155.5 -364q0 -289 -210 -465t-496 -176q-240 0 -395.5 133.5t-155.5 362.5zM416 1208l276 318h377l186 -318h-282l-117 144l-160 -144h-280zM594 512q0 -70 31.5 -115t89.5 -45q72 0 123 66.5t51 154.5 q0 70 -32 115t-89 45q-72 0 -123 -66.5t-51 -154.5z" />
<glyph unicode="&#xf5;" horiz-adv-x="1331" d="M113 469q0 195 101 344.5t261 224t348 74.5q236 0 391.5 -134t155.5 -364q0 -289 -210 -465t-496 -176q-240 0 -395.5 133.5t-155.5 362.5zM428 1204q16 111 98 213.5t191 102.5q84 0 165 -51.5t109.5 -51.5t61 33t49.5 80h162q-18 -121 -105.5 -226.5t-191.5 -105.5 q-80 0 -158 50t-119 50q-31 0 -59.5 -27.5t-44.5 -66.5h-158zM594 512q0 -70 31.5 -115t89.5 -45q72 0 123 66.5t51 154.5q0 70 -32 115t-89 45q-72 0 -123 -66.5t-51 -154.5z" />
<glyph unicode="&#xf6;" horiz-adv-x="1331" d="M113 469q0 195 101 344.5t261 224t348 74.5q236 0 391.5 -134t155.5 -364q0 -289 -210 -465t-496 -176q-240 0 -395.5 133.5t-155.5 362.5zM434 1225l37 268h317l-36 -268h-318zM594 512q0 -70 31.5 -115t89.5 -45q72 0 123 66.5t51 154.5q0 70 -32 115t-89 45 q-72 0 -123 -66.5t-51 -154.5zM926 1225l37 268h315l-37 -268h-315z" />
<glyph unicode="&#xf7;" horiz-adv-x="1118" d="M109 362l45 318h1003l-45 -318h-1003zM367 -59l41 288h368l-41 -288h-368zM489 811l41 289h369l-41 -289h-369z" />
<glyph unicode="&#xf8;" horiz-adv-x="1331" d="M113 469q0 195 101 344.5t261 224t348 74.5q184 0 326 -82l113 119l57 -59l-105 -109q156 -129 156 -367q0 -289 -210 -465t-496 -176q-190 0 -326 80l-115 -121l-57 60l102 108q-155 133 -155 369zM592 504q0 -33 6 -55l252 264q-35 35 -80 35q-76 0 -127 -75t-51 -169z M635 369q29 -31 78 -31q76 0 127 74.5t51 165.5q0 33 -6 55z" />
<glyph unicode="&#xf9;" horiz-adv-x="1390" d="M137 348l105 737h495l-88 -620q-6 -41 16.5 -70.5t61.5 -29.5q37 0 67.5 29.5t36.5 70.5l89 620h495l-96 -690q-8 -63 21.5 -80.5t93.5 -3.5l-43 -299q-117 -39 -287 -39q-223 0 -283 156q-168 -156 -366 -156q-162 0 -251.5 106.5t-66.5 268.5zM444 1526h387l170 -318 h-282z" />
<glyph unicode="&#xfa;" horiz-adv-x="1390" d="M137 348l105 737h495l-88 -620q-6 -41 16.5 -70.5t61.5 -29.5q37 0 67.5 29.5t36.5 70.5l89 620h495l-96 -690q-8 -63 21.5 -80.5t93.5 -3.5l-43 -299q-117 -39 -287 -39q-223 0 -283 156q-168 -156 -366 -156q-162 0 -251.5 106.5t-66.5 268.5zM664 1208l260 318h387 l-365 -318h-282z" />
<glyph unicode="&#xfb;" horiz-adv-x="1390" d="M137 348l105 737h495l-88 -620q-6 -41 16.5 -70.5t61.5 -29.5q37 0 67.5 29.5t36.5 70.5l89 620h495l-96 -690q-8 -63 21.5 -80.5t93.5 -3.5l-43 -299q-117 -39 -287 -39q-223 0 -283 156q-168 -156 -366 -156q-162 0 -251.5 106.5t-66.5 268.5zM424 1208l276 318h379 l187 -318h-283l-117 144l-159 -144h-283z" />
<glyph unicode="&#xfc;" horiz-adv-x="1390" d="M137 348l105 737h495l-88 -620q-6 -41 16.5 -70.5t61.5 -29.5q37 0 67.5 29.5t36.5 70.5l89 620h495l-96 -690q-8 -63 21.5 -80.5t93.5 -3.5l-43 -299q-117 -39 -287 -39q-223 0 -283 156q-168 -156 -366 -156q-162 0 -251.5 106.5t-66.5 268.5zM444 1225l37 268h318 l-37 -268h-318zM934 1225l37 268h317l-37 -268h-317z" />
<glyph unicode="&#xfd;" horiz-adv-x="1353" d="M111 -164q0 102 68.5 183t193.5 124q-129 10 -186.5 85t-41.5 200l93 657h495l-82 -587q-6 -43 16.5 -73t61.5 -30q37 0 67.5 30t37.5 73l81 587h498l-129 -913q-45 -315 -207 -455.5t-485 -140.5q-481 0 -481 260zM580 -49q0 -78 71 -78q92 0 111 121l20 145 q-8 -2 -21 -4t-49 -16.5t-62.5 -32.5t-48 -54t-21.5 -81zM655 1208l260 318h388l-365 -318h-283z" />
<glyph unicode="&#xfe;" horiz-adv-x="1370" d="M41 -397l268 1910h498l-76 -538q141 137 313 137q166 0 264.5 -135t98.5 -340q0 -276 -141.5 -470t-382.5 -194q-186 0 -289 166l-76 -536h-477zM627 516q0 -66 32.5 -110t88.5 -44q72 0 122 62.5t50 148.5q0 66 -33 110t-88 44q-72 0 -122 -62.5t-50 -148.5z" />
<glyph unicode="&#xff;" horiz-adv-x="1353" d="M111 -164q0 102 68.5 183t193.5 124q-129 10 -186.5 85t-41.5 200l93 657h495l-82 -587q-6 -43 16.5 -73t61.5 -30q37 0 67.5 30t37.5 73l81 587h498l-129 -913q-45 -315 -207 -455.5t-485 -140.5q-481 0 -481 260zM442 1225l37 268h318l-37 -268h-318zM580 -49 q0 -78 71 -78q92 0 111 121l20 145q-8 -2 -21 -4t-49 -16.5t-62.5 -32.5t-48 -54t-21.5 -81zM932 1225l37 268h317l-37 -268h-317z" />
<glyph unicode="&#x152;" horiz-adv-x="2097" d="M143 590q0 373 235.5 583.5t612.5 210.5h1219l-56 -389h-565l-16 -121h491l-51 -360h-491l-17 -127h566l-56 -387h-1218q-303 0 -478.5 153.5t-175.5 436.5zM655 621q0 -223 197 -224h166l84 590h-166q-281 1 -281 -366z" />
<glyph unicode="&#x153;" horiz-adv-x="1949" d="M115 465q0 293 198.5 470t470.5 177q250 0 363 -154q150 154 387 154q197 0 318.5 -99.5t121.5 -267.5q0 -96 -40 -168.5t-106.5 -110.5t-150.5 -61.5t-171 -22.5t-171 7q41 -76 199 -76q160 0 293 43l16 -313q-174 -70 -385 -70q-303 0 -414 170v-4q-156 -166 -419 -166 q-221 0 -365.5 132.5t-144.5 359.5zM596 512q0 -68 33 -114t88 -46q74 0 125 66.5t51 154.5q0 68 -33 114t-90 46q-72 0 -123 -66.5t-51 -154.5zM1348 653q39 -2 92 -3t100 24.5t47 75.5q0 59 -69 59q-129 0 -170 -156z" />
<glyph unicode="&#x178;" horiz-adv-x="1390" d="M160 1384h514l143 -499l291 499h510l-598 -890l-70 -494h-508l70 494zM506 1524l37 268h315l-37 -268h-315zM995 1524l37 268h318l-37 -268h-318z" />
<glyph unicode="&#x2c6;" horiz-adv-x="1042" d="M266 1208l279 318h377l186 -318h-283l-116 144l-160 -144h-283z" />
<glyph unicode="&#x2dc;" horiz-adv-x="1032" d="M301 1204q16 111 97 213.5t190 102.5q84 0 165 -51.5t109.5 -51.5t61 33t49.5 80h162q-18 -121 -105.5 -226.5t-189.5 -105.5q-80 0 -158 50t-121 50q-31 0 -59.5 -27.5t-42.5 -66.5h-158z" />
<glyph unicode="&#x2000;" horiz-adv-x="958" />
<glyph unicode="&#x2001;" horiz-adv-x="1918" />
<glyph unicode="&#x2002;" horiz-adv-x="958" />
<glyph unicode="&#x2003;" horiz-adv-x="1918" />
<glyph unicode="&#x2004;" horiz-adv-x="638" />
<glyph unicode="&#x2005;" horiz-adv-x="479" />
<glyph unicode="&#x2006;" horiz-adv-x="319" />
<glyph unicode="&#x2007;" horiz-adv-x="319" />
<glyph unicode="&#x2008;" horiz-adv-x="239" />
<glyph unicode="&#x2009;" horiz-adv-x="382" />
<glyph unicode="&#x200a;" horiz-adv-x="106" />
<glyph unicode="&#x2010;" horiz-adv-x="829" d="M147 375l46 317h641l-46 -317h-641z" />
<glyph unicode="&#x2011;" horiz-adv-x="829" d="M147 375l46 317h641l-46 -317h-641z" />
<glyph unicode="&#x2012;" horiz-adv-x="829" d="M147 375l46 317h641l-46 -317h-641z" />
<glyph unicode="&#x2013;" horiz-adv-x="1292" d="M147 375l46 317h1103l-45 -317h-1104z" />
<glyph unicode="&#x2014;" horiz-adv-x="1845" d="M147 375l46 317h1656l-45 -317h-1657z" />
<glyph unicode="&#x2018;" horiz-adv-x="626" d="M174 670l53 372l267 342h227l-221 -305h188l-57 -409h-457z" />
<glyph unicode="&#x2019;" horiz-adv-x="606" d="M195 670l223 305h-189l58 409h456l-53 -372l-266 -342h-229z" />
<glyph unicode="&#x201a;" horiz-adv-x="641" d="M59 -305l224 305h-189l58 410h456l-53 -373l-268 -342h-228z" />
<glyph unicode="&#x201c;" horiz-adv-x="1216" d="M174 670l53 372l267 342h227l-221 -305h188l-57 -409h-457zM764 670l53 372l266 342h228l-221 -305h188l-57 -409h-457z" />
<glyph unicode="&#x201d;" horiz-adv-x="1196" d="M195 670l223 305h-189l58 409h456l-53 -372l-266 -342h-229zM784 670l224 305h-191l57 409h459l-53 -372l-268 -342h-228z" />
<glyph unicode="&#x201e;" horiz-adv-x="1230" d="M59 -305l224 305h-189l58 410h456l-53 -373l-268 -342h-228zM649 -305l223 305h-190l57 410h459l-53 -373l-268 -342h-228z" />
<glyph unicode="&#x2022;" horiz-adv-x="872" d="M184 608q0 162 119 281t275 119q127 0 209.5 -90.5t82.5 -221.5q0 -164 -117.5 -282.5t-275.5 -118.5q-127 0 -210 90t-83 223z" />
<glyph unicode="&#x2026;" horiz-adv-x="2068" d="M94 0l58 410h456l-57 -410h-457zM805 0l57 410h459l-57 -410h-459zM1518 0l57 410h457l-58 -410h-456z" />
<glyph unicode="&#x202f;" horiz-adv-x="382" />
<glyph unicode="&#x2039;" horiz-adv-x="903" d="M125 549l442 493h439l-478 -493l338 -494h-438z" />
<glyph unicode="&#x203a;" horiz-adv-x="903" d="M53 55l475 494l-335 493h438l303 -493l-442 -494h-439z" />
<glyph unicode="&#x205f;" horiz-adv-x="479" />
<glyph unicode="&#x20ac;" horiz-adv-x="1458" d="M125 483l22 164h1051l-22 -164h-330q72 -102 252 -102q139 0 260 51l45 -373q-258 -86 -490 -86q-268 0 -435 135.5t-191 374.5h-162zM162 750l24 163h164q94 236 297 367t469 131q231 0 465 -86l-149 -373q-111 51 -246 52q-170 0 -266 -91h317l-25 -163h-1050z" />
<glyph unicode="&#x2122;" horiz-adv-x="1327" d="M266 1202l27 182h483l-26 -182h-134l-51 -360h-217l51 360h-133zM758 842l78 542h211l59 -143l100 143h213l-78 -542h-200l35 239l-107 -123h-10l-66 123l-35 -239h-200z" />
<glyph unicode="&#xe000;" horiz-adv-x="1085" d="M0 1085h1085v-1085h-1085v1085z" />
<glyph unicode="&#xfb01;" horiz-adv-x="1550" d="M-55 -385l41 299q29 -4 45 -4q39 0 62.5 6t47 33.5t31.5 81.5l98 696h-110l51 358h111q10 109 54 191t105.5 131t145.5 80t163.5 42t172.5 11q248 0 419 -65l-82 -310q-123 41 -239 41q-219 0 -246 -121h739l-100 -712q-8 -47 27 -61.5t88 -0.5l-43 -299 q-117 -39 -287 -39q-164 0 -238.5 86t-56.5 220l62 448h-240l-98 -696q-35 -248 -167 -351.5t-311 -103.5q-139 0 -245 39z" />
<glyph unicode="&#xfb02;" horiz-adv-x="1587" d="M-55 -385l41 299q29 -4 45 -4q39 0 62.5 6t47 33.5t31.5 81.5l98 696h-110l51 358h111q23 137 88 231.5t163.5 140.5t198.5 64.5t227 18.5q94 0 174 -11t159 -44t130 -84t77 -138t9 -200l-88 -635q-8 -53 7.5 -81t38 -34t59.5 -6q20 0 49 4l-43 -299q-117 -39 -260 -39 q-82 0 -147.5 21.5t-120 70t-76 140.5t-2.5 223l92 657q6 51 -18.5 86t-80.5 35q-117 0 -143 -121h166l-51 -358h-164l-98 -696q-35 -248 -167 -351.5t-311 -103.5q-139 0 -245 39z" />
<glyph unicode="&#xfb03;" horiz-adv-x="2281" d="M-55 -385l41 299q29 -4 45 -4q39 0 62.5 6t47 33.5t31.5 81.5l98 696h-110l51 358h111q18 111 55 193t81 127t104.5 71.5t113.5 35t121 8.5q233 0 432 -105q164 125 469 125q248 0 420 -65l-82 -310q-123 41 -240 41q-219 0 -246 -121h740l-101 -712q-8 -47 27 -61.5 t88 -0.5l-43 -299q-117 -39 -287 -39q-164 0 -238.5 86t-56.5 220l62 448h-240l-88 -623q-35 -248 -167 -351t-310 -103q-139 0 -246 39l41 299q29 -4 45 -4q39 0 62.5 6t47 33.5t32.5 80.5l88 623h-240l-98 -696q-35 -248 -167 -351.5t-311 -103.5q-139 0 -245 39z M815 1085h242q2 35 14 82q-66 18 -119 19q-37 0 -60.5 -5t-46 -29t-30.5 -67z" />
<glyph unicode="&#xfb04;" horiz-adv-x="2328" d="M-55 -385l41 299q29 -4 45 -4q39 0 62.5 6t47 33.5t31.5 81.5l98 696h-110l51 358h111q18 111 55 193t81 127t104.5 71.5t113.5 35t121 8.5q229 0 434 -105q180 125 504 125q94 0 174 -11t158.5 -44t130 -84t77 -138t9.5 -200l-89 -635q-8 -53 7.5 -81t38 -34t59.5 -6 q20 0 49 4l-43 -299q-117 -39 -260 -39q-82 0 -147.5 21.5t-120 70t-76 140.5t-2.5 223l92 657q6 51 -18.5 86t-79.5 35q-117 0 -144 -121h166l-51 -358h-164l-86 -623q-35 -248 -167 -351t-310 -103q-139 0 -246 39l41 299q29 -4 45 -4q39 0 62.5 6t47 33.5t32.5 80.5 l86 623h-240l-98 -696q-35 -248 -167 -351.5t-311 -103.5q-139 0 -245 39zM815 1085h242q0 39 10 84q-74 16 -115 17q-37 0 -60.5 -5t-46 -29t-30.5 -67z" />
</font>
</defs>
</svg>
