<?xml version="1.0" standalone="no"?>
<!DOCTYPE svg PUBLIC "-//W3C//DTD SVG 1.1//EN" "http://www.w3.org/Graphics/SVG/1.1/DTD/svg11.dtd" >
<svg xmlns="http://www.w3.org/2000/svg">
<metadata>
This is a custom SVG webfont generated by Font Squirrel.
Copyright   : Joe Prince Admix Designs  2008  2012
Designer    : Joe Prince
Foundry     : Joe Prince
Foundry URL : wwwlosttypecom
</metadata>
<defs>
<font id="BemioRegular" horiz-adv-x="1400" >
<font-face units-per-em="2048" ascent="1536" descent="-512" />
<missing-glyph horiz-adv-x="491" />
<glyph unicode=" "  horiz-adv-x="491" />
<glyph unicode="&#x09;" horiz-adv-x="491" />
<glyph unicode="&#xa0;" horiz-adv-x="491" />
<glyph unicode="!" horiz-adv-x="706" d="M96 1159v225h514v-225l-84 -643h-346zM113 0v410h481v-410h-481z" />
<glyph unicode="&#x22;" horiz-adv-x="1052" d="M94 1245v139h352v-139l-20 -495h-311zM606 1245v139h352v-139l-20 -495h-311z" />
<glyph unicode="#" horiz-adv-x="1357" d="M57 248v250h240l27 200h-193v250h225l33 248h281l-33 -248h176l33 248h280l-32 -248h206v-250h-239l-27 -200h193v-250h-226l-32 -248h-281l33 248h-176l-33 -248h-281l33 248h-207zM578 498h176l26 200h-176z" />
<glyph unicode="$" horiz-adv-x="1294" d="M66 76l81 370q244 -111 455 -110q127 0 127 63q0 41 -68.5 65.5t-166 47.5t-194.5 61.5t-164.5 130t-67.5 230.5q2 207 133 328.5t360 144.5v192h205v-192q203 -10 416 -74l-80 -356q-188 78 -408 78q-127 0 -127 -62q0 -37 50.5 -62.5t124 -41t161.5 -46t162 -70.5 t124 -122t50 -194q0 -215 -124 -333t-349 -142v-312h-205v305q-272 9 -495 101z" />
<glyph unicode="%" horiz-adv-x="1720" d="M53 1040q0 168 88 269.5t252 101.5t252 -101.5t88 -269.5t-88 -269t-252 -101t-252 101t-88 269zM299 1040.5q0 -79.5 24.5 -127t69.5 -47.5t69.5 47.5t24.5 127t-24.5 126.5t-69.5 47t-69.5 -47t-24.5 -126.5zM309 -20l897 1425h205l-899 -1425h-203zM987 344 q0 168 88 269.5t252 101.5t252 -101.5t88 -269.5t-88 -269.5t-252 -101.5t-252 101.5t-88 269.5zM1233 344q0 -80 24.5 -127t69.5 -47t69.5 47t24.5 127t-24.5 127t-69.5 47t-69.5 -47t-24.5 -127z" />
<glyph unicode="&#x26;" horiz-adv-x="1452" d="M61 365q0 129 75 222t192 124q-223 100 -224 315q0 186 161 285.5t437 99.5q238 0 482 -80l-62 -366q-162 63 -354 63q-174 0 -174 -80q0 -74 160 -74h37v-348h-62q-152 0 -151 -82q0 -88 143 -88q88 0 130 39t42 99v380h526v-348h-112v-16q0 -537 -623 -537 q-164 0 -298 35t-229.5 127.5t-95.5 229.5z" />
<glyph unicode="'" horiz-adv-x="540" d="M94 1245v139h352v-139l-20 -495h-311z" />
<glyph unicode="(" horiz-adv-x="753" d="M51 532.5q0 247.5 69.5 470t221.5 463.5h418q-311 -410 -311 -934t311 -933h-418q-152 242 -221.5 464t-69.5 469.5z" />
<glyph unicode=")" horiz-adv-x="753" d="M-6 -401q311 410 311 934t-311 933h418q152 -242 221 -464t69 -469.5t-69.5 -470t-220.5 -463.5h-418z" />
<glyph unicode="*" horiz-adv-x="1026" d="M59 963l78 239l76 -24l199 -91l-25 218v79h252v-79l-25 -215l199 90l76 24l78 -239l-74 -25l-215 -45l147 -160l47 -65l-204 -148l-45 64l-109 190l-108 -190l-46 -64l-204 148l47 63l147 162l-215 43z" />
<glyph unicode="+" horiz-adv-x="1173" d="M59 362v318h365v362h326v-362h364v-318h-364v-362h-326v362h-365z" />
<glyph unicode="," horiz-adv-x="675" d="M98 0v410h482v-373l-232 -342h-239l188 305h-199z" />
<glyph unicode="-" horiz-adv-x="872" d="M98 375v317h676v-317h-676z" />
<glyph unicode="." horiz-adv-x="677" d="M98 0v410h482v-410h-482z" />
<glyph unicode="/" horiz-adv-x="1103" d="M49 -57l668 1472h340l-668 -1472h-340z" />
<glyph unicode="0" horiz-adv-x="1409" d="M66 692q0 330 160.5 524.5t478 194.5t478 -194.5t160.5 -524.5t-160.5 -524.5t-478 -194.5t-478 194.5t-160.5 524.5zM596 692q0 -170 22.5 -254t86 -84t86 84t22.5 254t-22.5 254t-86 84t-86 -84t-22.5 -254z" />
<glyph unicode="1" horiz-adv-x="999" d="M27 786v301q406 0 422 297h432v-1384h-521v786h-333z" />
<glyph unicode="2" horiz-adv-x="1341" d="M76 0v395q76 47 191.5 116t181 110t136 91t102.5 95t32 90q0 59 -46 80.5t-149 21.5q-154 0 -374 -90l-74 389q109 41 277.5 77t301.5 36q131 0 231.5 -20.5t185.5 -67.5t130 -137t45 -219q0 -162 -101.5 -285t-307.5 -270h424v-412h-1186z" />
<glyph unicode="3" horiz-adv-x="1306" d="M43 53l53 400q201 -84 402 -84q219 0 219 73q0 80 -154 80h-274v357h233q152 0 152 67q0 72 -168 72q-184 0 -350 -66l-62 377q246 82 496 82q279 0 437.5 -99.5t158.5 -299.5q0 -104 -63.5 -181t-161.5 -120q119 -29 206.5 -123t87.5 -215q0 -109 -54 -189t-150.5 -124 t-211 -65.5t-251.5 -21.5q-305 0 -545 80z" />
<glyph unicode="4" horiz-adv-x="1406" d="M37 248v387l547 749h612v-757h135v-379h-135v-248h-481v248h-678zM463 616h262v357z" />
<glyph unicode="5" horiz-adv-x="1284" d="M51 51l55 385q188 -82 349 -82q209 0 209 105q0 113 -195 112q-72 0 -176 -18l-205 147l102 684h984v-387h-533l-18 -114q61 4 94 4q215 0 362.5 -112.5t147.5 -346.5q0 -123 -54.5 -214t-149.5 -142.5t-209 -75t-249 -23.5q-248 0 -514 78z" />
<glyph unicode="6" horiz-adv-x="1363" d="M63 692q0 328 195 523.5t487 195.5q276 0 492 -104l-74 -326q-139 59 -319 59q-244 0 -269 -211q139 86 297 86q221 0 332 -125.5t111 -332.5q0 -217 -164 -350.5t-463 -133.5q-307 0 -466 189.5t-159 529.5zM608 459q0 -135 97 -135q49 0 72.5 38.5t23.5 96.5 q0 137 -96 137q-47 0 -72 -39t-25 -98z" />
<glyph unicode="7" horiz-adv-x="1214" d="M35 958v426h1157v-370q-182 -227 -285.5 -471t-115.5 -543h-539q10 410 366 958h-583z" />
<glyph unicode="8" horiz-adv-x="1363" d="M61 362q0 258 279 345q-229 78 -229 333q0 186 148.5 278.5t422.5 92.5t422.5 -92t148.5 -279q0 -256 -229 -333q279 -86 279 -345q0 -94 -32 -162.5t-84 -111.5t-134 -69.5t-170 -36t-201 -9.5t-201 9.5t-170 36t-134 69.5t-84 111.5t-32 162.5zM582 410 q0 -150 100 -150t100 150q0 162 -100 162t-100 -162zM600 1001q0 -59 22.5 -95t59.5 -36t59.5 36t22.5 95q0 133 -82 133t-82 -133z" />
<glyph unicode="9" horiz-adv-x="1378" d="M59 936q0 213 168 344t455 131q322 0 477.5 -193.5t155.5 -506.5q0 -342 -179.5 -540t-510.5 -198q-301 0 -516 105l73 352q172 -76 359 -76q135 0 194.5 45t73.5 133q-123 -63 -285 -63q-227 0 -346 130t-119 337zM575 919.5q0 -59.5 25 -98.5t76 -39q100 0 100 138 q0 57 -25.5 98t-74.5 41q-51 0 -76 -40t-25 -99.5z" />
<glyph unicode=":" horiz-adv-x="714" d="M117 0v410h481v-410h-481zM117 676v409h481v-409h-481z" />
<glyph unicode=";" horiz-adv-x="712" d="M117 0v410h481v-373l-231 -342h-240l188 305h-198zM117 676v409h481v-409h-481z" />
<glyph unicode="&#x3c;" horiz-adv-x="1138" d="M57 354v336l983 383v-346l-591 -205l591 -205v-346z" />
<glyph unicode="=" horiz-adv-x="1259" d="M102 117v317h1055v-317h-1055zM102 610v318h1055v-318h-1055z" />
<glyph unicode="&#x3e;" horiz-adv-x="1138" d="M98 -29v346l592 205l-592 205v346l983 -383v-336z" />
<glyph unicode="?" horiz-adv-x="1062" d="M49 1327q217 84 459 84q225 0 360.5 -77t135.5 -249q0 -86 -43 -165.5t-93.5 -129t-93.5 -112t-43 -119.5v-43h-409v70q0 55 30.5 110.5t66.5 94t66.5 92t30.5 106.5q0 70 -117 70q-131 0 -284 -58zM291 0v410h481v-410h-481z" />
<glyph unicode="@" horiz-adv-x="1581" d="M74 504q0 322 235.5 549t544.5 227q297 0 484.5 -183.5t187.5 -461.5q0 -233 -120 -359t-273 -126q-160 0 -199 149q-102 -150 -270 -149q-150 0 -235 96t-85 241q0 190 126 328.5t298 138.5q168 0 246 -129l18 99h232l-88 -467q-25 -141 67 -142q78 0 130 81t52 239 q0 248 -157.5 399.5t-417.5 151.5q-272 0 -476 -201t-204 -477q0 -254 176 -424t428 -170q188 0 354 104l52 -75q-195 -121 -410 -121q-299 0 -497.5 199.5t-198.5 482.5zM598 504q0 -72 40 -117t107 -45q84 0 148.5 69.5t64.5 188.5q0 68 -37.5 113t-105.5 45 q-94 0 -155.5 -74t-61.5 -180z" />
<glyph unicode="A" horiz-adv-x="1552" d="M-27 0l484 1384h637l485 -1384h-535l-63 231h-410l-61 -231h-537zM659 555h234l-117 426z" />
<glyph unicode="B" horiz-adv-x="1466" d="M119 2v1374q268 35 481 35q147 0 271 -18.5t239 -61.5t180.5 -129t65.5 -207q0 -201 -187 -293q88 -18 172 -100t84 -215q0 -123 -64.5 -208t-184 -128t-256 -60.5t-314.5 -17.5q-258 0 -487 29zM627 326q14 -2 92 -2q80 0 142.5 28.5t62.5 96.5q0 127 -211 126 q-45 0 -86 -4v-245zM627 842q18 -2 75 -2q178 0 179 121q0 113 -172 112q-41 0 -82 -4v-227z" />
<glyph unicode="C" horiz-adv-x="1361" d="M57 692q0 332 209 525.5t553 193.5q244 0 502 -86l-102 -373q-121 51 -267 52q-168 0 -260 -82t-92 -229.5t92 -229.5t260 -82q145 0 267 51l102 -373q-258 -86 -502 -86q-344 0 -553 194.5t-209 524.5z" />
<glyph unicode="D" horiz-adv-x="1601" d="M119 2v1374q233 35 532 35q406 0 650.5 -191.5t244.5 -535.5q0 -176 -64.5 -308t-160.5 -207t-231.5 -121t-254 -60.5t-249.5 -14.5q-199 0 -467 29zM651 367q16 -2 62 -2q150 0 222.5 93t72.5 251q0 154 -76 238.5t-215 84.5q-49 0 -66 -2v-663z" />
<glyph unicode="E" horiz-adv-x="1347" d="M119 0v1384h1143v-389h-623v-121h545v-360h-545v-127h623v-387h-1143z" />
<glyph unicode="F" horiz-adv-x="1253" d="M119 0v1384h1085v-393h-557v-170h488v-407h-488v-414h-528z" />
<glyph unicode="G" horiz-adv-x="1495" d="M55 688q0 330 225.5 526.5t585.5 196.5q244 0 492 -65l-68 -381q-168 49 -319 49q-373 0 -373 -326q0 -154 91 -235.5t214 -81.5q20 0 49 4v393h465v-690q-240 -104 -575 -105q-346 0 -566.5 191.5t-220.5 523.5z" />
<glyph unicode="H" horiz-adv-x="1642" d="M119 0v1384h530v-497h344v497h531v-1384h-531v514h-344v-514h-530z" />
<glyph unicode="I" horiz-adv-x="772" d="M119 0v1384h534v-1384h-534z" />
<glyph unicode="J" horiz-adv-x="1085" d="M16 49l93 363q76 -23 141 -23q100 0 150.5 32t50.5 124v440h-248v399h778v-811q0 -600 -598 -600q-209 0 -367 76z" />
<glyph unicode="K" horiz-adv-x="1536" d="M119 0v1384h534v-491l297 491h574l-424 -622l461 -762h-611l-297 563v-563h-534z" />
<glyph unicode="L" horiz-adv-x="1198" d="M119 0v1384h534v-995h525v-389h-1059z" />
<glyph unicode="M" horiz-adv-x="1800" d="M119 0v1384h536l244 -452l246 452h536v-1384h-497v707l-279 -443h-12l-277 443v-707h-497z" />
<glyph unicode="N" horiz-adv-x="1667" d="M119 0v1384h532l408 -706v706h489v-1384h-506l-434 711v-711h-489z" />
<glyph unicode="O" horiz-adv-x="1677" d="M55 692q0 332 215 525.5t570 193.5q352 0 567 -193.5t215 -525.5t-215 -525.5t-567 -193.5q-354 0 -569.5 193.5t-215.5 525.5zM594 692.5q0 -155.5 62.5 -238.5t183.5 -83t182 83t61 238.5t-61 238.5t-182 83t-183.5 -83t-62.5 -238.5z" />
<glyph unicode="P" horiz-adv-x="1456" d="M119 0v1378q211 33 497 33q147 0 281.5 -25.5t257.5 -84t196.5 -168t73.5 -261.5q0 -145 -70.5 -254.5t-186 -168t-249.5 -80.5q-92 -15 -188 -16q-43 0 -88 3v-356h-524zM639 727q22 -2 44 -2q32 0 63 4q52 6 104.5 43t52.5 105q0 63 -52 99t-109 43q-30 4 -58 4 q-24 0 -45 -3v-293z" />
<glyph unicode="Q" horiz-adv-x="1679" d="M57 690q0 334 215 527.5t570 193.5q352 0 567 -193.5t215 -527.5q0 -236 -112.5 -405.5t-311.5 -247.5q42 -52 109 -52q69 0 166 54l157 -238q-104 -96 -246 -140q-109 -34 -210 -34q-31 0 -62 3q-131 13 -235.5 102.5t-135.5 242.5q-311 27 -498.5 217.5t-187.5 497.5z M596 692.5q0 -155.5 62.5 -241.5t183.5 -86q119 0 181 86t62 241.5t-61 238.5t-182 83t-183.5 -83t-62.5 -238.5z" />
<glyph unicode="R" horiz-adv-x="1519" d="M119 0v1370q238 41 532 41q788 0 789 -481q0 -246 -254 -361q215 -41 287 -569h-531q-18 92 -35.5 159.5t-33 116t-39 78t-39 46t-47 23.5t-51 8t-64.5 1v-432h-514zM631 758q14 -2 47 -2q55 0 104 9t94.5 43t45.5 91q0 76 -71 107.5t-159 31.5q-29 0 -61 -4v-276z" />
<glyph unicode="S" horiz-adv-x="1300" d="M70 78l84 375q233 -113 456 -113q115 0 115 51q0 27 -67.5 44.5t-164 42t-191.5 67.5t-163 143q-66 97 -65 237q0 234 160 361q159 125 430 125q258 0 530 -80l-84 -373q-180 82 -410 82q-115 0 -114 -51q0 -27 68.5 -45t166 -42.5t193.5 -67.5t164.5 -137.5t68.5 -231.5 q0 -248 -159.5 -370t-442.5 -122q-311 1 -575 105z" />
<glyph unicode="T" horiz-adv-x="1361" d="M20 989v395h1321v-395h-393v-989h-534v989h-394z" />
<glyph unicode="U" horiz-adv-x="1546" d="M104 547v837h535v-831q0 -84 27.5 -128t105.5 -44q80 0 107.5 44t27.5 128v831h535v-837q0 -289 -174 -431.5t-495.5 -142.5t-495 142.5t-173.5 431.5z" />
<glyph unicode="V" horiz-adv-x="1533" d="M-12 1384h544l234 -919l235 919h547l-418 -1384h-729z" />
<glyph unicode="W" horiz-adv-x="2258" d="M6 1384h529l139 -942l209 942h487l211 -942l141 942h531l-309 -1384h-652l-164 778l-165 -778h-648z" />
<glyph unicode="X" horiz-adv-x="1525" d="M-10 0l405 717l-383 667h553l197 -389l194 389h557l-387 -667l408 -717h-553l-219 422l-219 -422h-553z" />
<glyph unicode="Y" horiz-adv-x="1464" d="M-37 1384h541l225 -499l232 499h538l-500 -890v-494h-534v494z" />
<glyph unicode="Z" horiz-adv-x="1351" d="M68 0v317l583 676h-553v391h1159v-380l-520 -613h533v-391h-1202z" />
<glyph unicode="[" horiz-adv-x="784" d="M106 -399v1865h637v-262h-286v-1337h286v-266h-637z" />
<glyph unicode="\" horiz-adv-x="1103" d="M47 1415h340l668 -1472h-340z" />
<glyph unicode="]" horiz-adv-x="784" d="M41 -133h287v1337h-287v262h637v-1865h-637v266z" />
<glyph unicode="^" horiz-adv-x="1181" d="M72 668l321 716h389l322 -716h-354l-162 417l-162 -417h-354z" />
<glyph unicode="_" horiz-adv-x="1501" d="M246 -76h1009v-178h-1009v178z" />
<glyph unicode="`" horiz-adv-x="808" d="M88 1526h408l225 -318h-297z" />
<glyph unicode="a" horiz-adv-x="1329" d="M39 322q0 172 121 261t346 89q119 0 213 -21v11q0 100 -191 100q-184 0 -340 -60l-71 324q221 86 522 86q602 0 602 -471v-641h-516v100q-137 -127 -317 -127q-160 0 -264.5 102t-104.5 247zM528 346q0 -37 23.5 -60.5t66.5 -23.5q113 0 113 141v37q-31 6 -76 6 q-59 0 -93 -26.5t-34 -73.5z" />
<glyph unicode="b" horiz-adv-x="1441" d="M102 0v1513h523v-538q127 137 309 137q201 0 329 -164t128 -403.5t-128 -405.5t-329 -166q-199 0 -330 166v-139h-502zM582 545q0 -76 43 -129.5t108.5 -53.5t108.5 53.5t43 129.5t-43 129t-108.5 53t-108.5 -53t-43 -129z" />
<glyph unicode="c" horiz-adv-x="1103" d="M49 543q0 254 165 411.5t443 157.5q188 0 402 -74l-68 -336q-102 43 -209 43q-119 0 -170 -57t-51 -139q0 -80 51.5 -139.5t169.5 -59.5q111 0 209 45l68 -350q-207 -72 -402 -72q-279 0 -443.5 157t-164.5 413z" />
<glyph unicode="d" horiz-adv-x="1441" d="M51 544.5q0 239.5 134 403.5t341 164q170 0 291 -133v534h522v-1513h-501v139q-131 -166 -330 -166q-201 0 -329 166t-128 405.5zM557 545q0 -76 43 -129.5t108.5 -53.5t108.5 53.5t43 129.5t-43 129t-108.5 53t-108.5 -53t-43 -129z" />
<glyph unicode="e" horiz-adv-x="1253" d="M47 555q0 248 171 402.5t417 154.5q328 0 469 -191q108 -147 108 -362q0 -65 -10 -137h-682q57 -117 297 -117q131 0 285 51l53 -307q-193 -76 -463 -76q-281 0 -463 149.5t-182 432.5zM506 666h270q-18 143 -128.5 143t-141.5 -143zM506 666h270h-270z" />
<glyph unicode="f" horiz-adv-x="905" d="M61 727v358h115v5q0 129 37 221t101.5 140t136 68.5t157.5 20.5q174 0 301 -51l-35 -287q-29 4 -49 4q-39 0 -62.5 -5t-44 -31.5t-20.5 -75.5v-9h172v-358h-172v-727h-522v727h-115z" />
<glyph unicode="g" horiz-adv-x="1437" d="M47 623q0 207 129 348t330 141q199 0 330 -141v114h501v-913q0 -315 -149.5 -455.5t-489.5 -140.5q-549 0 -548 291q0 96 64.5 170t182.5 110q-158 35 -254 167.5t-96 308.5zM557 579.5q0 -71.5 39 -121.5t100.5 -50t101.5 50t40 121.5t-40 121t-101.5 49.5t-100.5 -49.5 t-39 -121zM627 -23q0 -104 96 -104q104 0 104 123v143q-8 0 -21 -2t-48 -13t-61.5 -27.5t-48 -47.5t-21.5 -72z" />
<glyph unicode="h" horiz-adv-x="1431" d="M102 0v1513h523v-528q123 127 323 127q166 0 278.5 -107.5t112.5 -267.5v-737h-522v621q0 41 -28.5 70.5t-67.5 29.5t-67.5 -29.5t-28.5 -70.5v-621h-523z" />
<glyph unicode="i" horiz-adv-x="727" d="M96 1190v323h535v-323h-535zM102 0v1085h523v-1085h-523z" />
<glyph unicode="j" horiz-adv-x="729" d="M-70 -94q35 12 58.5 23.5t54.5 32t46 52t15 72.5v999h523v-976q0 -133 -42 -231.5t-102.5 -153t-157 -88t-174 -44t-184.5 -16.5zM98 1190v323h535v-323h-535z" />
<glyph unicode="k" d="M102 0v1513h523v-778l221 350h526l-334 -442l377 -643h-555l-235 442v-442h-523z" />
<glyph unicode="l" horiz-adv-x="727" d="M102 0v1513h523v-1513h-523z" />
<glyph unicode="m" horiz-adv-x="2125" d="M102 0v1085h500v-110q127 137 342 137q207 0 318 -158q141 158 387 158q164 0 274.5 -106.5t110.5 -268.5v-737h-523v621q0 43 -25.5 71.5t-64.5 28.5t-65.5 -29.5t-26.5 -70.5v-621h-522v621q0 43 -25.5 71.5t-64.5 28.5t-65.5 -29.5t-26.5 -70.5v-621h-523z" />
<glyph unicode="n" horiz-adv-x="1431" d="M102 0v1085h506v-106q133 133 340 133q166 0 278.5 -107.5t112.5 -267.5v-737h-522v621q0 41 -28.5 70.5t-67.5 29.5t-67.5 -29.5t-28.5 -70.5v-621h-523z" />
<glyph unicode="o" d="M45 543q0 262 189.5 415.5t467.5 153.5q274 0 464 -153.5t190 -415.5t-189.5 -416t-464.5 -154q-279 0 -468 154t-189 416zM547 543q0 -80 43 -135.5t110.5 -55.5t110.5 55.5t43 135.5t-43 135t-110.5 55t-110.5 -55t-43 -135z" />
<glyph unicode="p" horiz-adv-x="1441" d="M102 -397v1482h502v-139q131 166 330 166q201 0 329 -166t128 -405.5t-134.5 -403.5t-341.5 -164q-170 0 -290 133v-503h-523zM582 545q0 -76 43 -129.5t108.5 -53.5t108.5 53.5t43 129.5t-43 129t-108.5 53t-108.5 -53t-43 -129z" />
<glyph unicode="q" horiz-adv-x="1441" d="M51 540.5q0 239.5 128 405.5t329 166q199 0 330 -166v139h501v-1482h-522v508q-127 -137 -309 -138q-201 0 -329 164t-128 403.5zM557 545q0 -76 43 -129.5t108.5 -53.5t108.5 53.5t43 129.5t-43 129t-108.5 53t-108.5 -53t-43 -129z" />
<glyph unicode="r" horiz-adv-x="976" d="M102 0v1085h488v-192q12 25 18 38t20.5 39.5t29 42t36 38t46 33t55.5 20.5q28 9 62 9h7q39 -1 82 -11v-406q-33 4 -62 5q-109 0 -175 -60q-84 -76 -84 -235v-406h-523z" />
<glyph unicode="s" horiz-adv-x="1120" d="M47 98l47 312q166 -111 369 -111q86 0 86 41q0 16 -48 27.5t-117 28t-137.5 47t-116.5 105.5t-48 183q0 188 143.5 284.5t390.5 96.5q211 0 418 -88l-45 -297q-147 66 -293 66q-109 0 -108 -37q0 -16 35.5 -28.5t89 -21t115 -31t114.5 -56t89 -103.5t36 -164 q0 -188 -139.5 -283.5t-386.5 -95.5q-261 0 -494 125z" />
<glyph unicode="t" horiz-adv-x="960" d="M55 727v358h113v252h522v-252h189v-358h-189v-289q0 -59 37 -87.5t90 -28.5q23 0 55 4l41 -289q-145 -63 -350 -64q-395 0 -395 338v416h-113z" />
<glyph unicode="u" horiz-adv-x="1431" d="M92 348v737h522v-620q0 -41 29 -70.5t68 -29.5t67.5 29.5t28.5 70.5v620h522v-1085h-506v106q-133 -133 -340 -133q-166 0 -278.5 107.5t-112.5 267.5z" />
<glyph unicode="v" horiz-adv-x="1318" d="M-14 1085h522l151 -641l152 641h522l-381 -1085h-585z" />
<glyph unicode="w" horiz-adv-x="1955" d="M-2 1085h532l105 -591l153 591h371l162 -591l111 591h526l-328 -1085h-506l-145 494l-150 -494h-503z" />
<glyph unicode="x" horiz-adv-x="1384" d="M-10 0l354 567l-317 518h503l162 -284l162 284h504l-318 -518l355 -567h-555l-148 324l-147 -324h-555z" />
<glyph unicode="y" horiz-adv-x="1425" d="M88 428v657h522v-587q0 -43 28 -73t69 -30t68.5 30t27.5 73v587h522v-913q0 -315 -149.5 -455.5t-489.5 -140.5q-549 0 -549 291q0 92 60.5 164.5t173.5 111.5q-137 10 -210 85t-73 200zM614 -31q0 -96 88 -96q100 0 101 121v145q-8 -2 -20.5 -4t-45 -14t-57.5 -29.5 t-45.5 -49.5t-20.5 -73z" />
<glyph unicode="z" horiz-adv-x="1161" d="M59 0v295l418 440h-381v350h981v-313l-391 -422h401v-350h-1028z" />
<glyph unicode="{" horiz-adv-x="874" d="M20 418v233q84 4 151 40t67 104v286q0 385 419 385h177v-258h-136q-59 0 -84.5 -30.5t-25.5 -96.5v-215q0 -266 -203 -331q203 -66 203 -332v-215q0 -66 25.5 -96.5t84.5 -30.5h136v-258h-177q-420 0 -419 385v286q0 68 -66 103t-152 41z" />
<glyph unicode="|" horiz-adv-x="452" d="M106 -397v1863h240v-1863h-240z" />
<glyph unicode="}" horiz-adv-x="874" d="M41 -139h135q59 0 85 30.5t26 96.5v215q0 266 202 332q-203 66 -202 331v215q0 66 -25.5 96.5t-85.5 30.5h-135v258h176q420 0 420 -385v-286q0 -68 66.5 -104t150.5 -40v-233q-86 -6 -151.5 -41t-65.5 -103v-286q0 -385 -420 -385h-176v258z" />
<glyph unicode="~" horiz-adv-x="1374" d="M68 401q0 70 23.5 145t68.5 143.5t121.5 112.5t171.5 44q102 0 192 -38t156.5 -76t113.5 -38q109 0 154 172h244q-2 -104 -45 -208.5t-135.5 -180.5t-212.5 -76q-78 0 -150 24t-115 51.5t-97 51t-105 23.5q-57 0 -94 -45t-50 -105h-241z" />
<glyph unicode="&#xa1;" horiz-adv-x="677" d="M82 -74l84 643h346l84 -643v-225h-514v225zM98 676v409h482v-409h-482z" />
<glyph unicode="&#xa2;" horiz-adv-x="1126" d="M53 602q0 229 138.5 384t377.5 183v203h205v-203q129 -16 275 -61l-56 -272q-80 29 -190 28q-152 0 -217.5 -74.5t-65.5 -181.5q0 -102 65.5 -180t217.5 -78q115 0 190 31l60 -289q-141 -45 -279 -59v-293h-205v295q-240 27 -378 181.5t-138 385.5z" />
<glyph unicode="&#xa3;" horiz-adv-x="1286" d="M63 618v162h144q-20 106 -21 176q0 219 167 337t425 118q244 0 447 -68l-82 -380q-129 37 -234 36q-195 0 -194 -147q0 -33 6 -72h287v-162h-267q6 -123 -28 -243h458v-375h-1060v184q162 221 129 434h-177z" />
<glyph unicode="&#xa4;" horiz-adv-x="1421" d="M55 70l183 182q-90 139 -91 305q0 168 91 307l-183 183l168 165l183 -182q139 90 305 90q168 0 307 -90l182 182l166 -165l-182 -183q90 -139 90 -307q0 -166 -90 -305l182 -182l-166 -166l-182 182q-141 -92 -307 -92q-164 0 -305 92l-183 -182zM408 557q0 -125 89 -213 t214 -88t214 88t89 213q0 127 -89 215t-214 88t-214 -89t-89 -214z" />
<glyph unicode="&#xa5;" horiz-adv-x="1507" d="M45 1384h512l197 -518l196 518h512l-311 -616h176v-162h-258l-55 -112v-58h313v-162h-313v-274h-520v274h-314v162h314v58l-58 112h-256v162h174z" />
<glyph unicode="&#xa6;" horiz-adv-x="565" d="M115 379h336v-778h-336v778zM115 659v701h336v-701h-336z" />
<glyph unicode="&#xa7;" horiz-adv-x="1075" d="M66 438q0 178 165 240q-102 84 -102 235q0 164 118 257.5t318 93.5q184 0 400 -72l-62 -256q-180 63 -319 63q-111 0 -111 -65q0 -31 55.5 -51.5t134 -39t158.5 -46t135.5 -88t55.5 -148.5q0 -176 -164 -239q109 -80 108 -236q0 -164 -117.5 -257t-318.5 -93 q-207 0 -430 88l62 256q184 -80 348 -80q113 0 112 66q0 31 -56 51t-137 38.5t-161 46t-136 88t-56 148.5zM416 520q0 -29 26.5 -49t58 -29.5t93.5 -21.5q66 10 65 59q0 23 -11 38t-43 27.5t-51 17.5t-71 18q-67 -11 -67 -60z" />
<glyph unicode="&#xa8;" horiz-adv-x="1179" d="M170 1225v268h334v-268h-334zM686 1225v268h334v-268h-334z" />
<glyph unicode="&#xa9;" horiz-adv-x="1468" d="M63 651.5q0 278.5 197 475t475.5 196.5t474 -196.5t195.5 -475t-195.5 -474t-474 -195.5t-475.5 195.5t-197 474zM154 651q0 -240 170 -409.5t411 -169.5q240 0 410 170t170 409q0 242 -170 412t-410 170q-242 0 -411.5 -170t-169.5 -412zM367 651q0 166 106.5 265.5 t278.5 99.5q117 0 268 -49l-62 -211q-78 33 -137 32q-72 0 -111.5 -37.5t-39.5 -99.5q0 -59 40 -98t109 -39q59 0 139 33l62 -211q-145 -47 -268 -47q-174 0 -279.5 98t-105.5 264z" />
<glyph unicode="&#xaa;" horiz-adv-x="1036" d="M80 702q0 117 85 177.5t245 60.5q92 0 149 -14v8q0 68 -133 67q-125 0 -242 -40l-49 221q158 57 369 57q424 0 424 -319v-437h-365v68q-96 -86 -223 -86q-113 0 -186.5 69.5t-73.5 167.5zM426 719q0 -57 63 -57q80 0 80 96v24q-14 4 -53 4q-90 1 -90 -67z" />
<glyph unicode="&#xab;" horiz-adv-x="1671" d="M49 549l393 493h461l-428 -493l428 -494h-461zM770 549l393 493h461l-428 -493l428 -494h-461z" />
<glyph unicode="&#xac;" horiz-adv-x="1333" d="M70 684v305h1155v-645h-310v340h-845z" />
<glyph unicode="&#xad;" horiz-adv-x="872" d="M98 375v317h676v-317h-676z" />
<glyph unicode="&#xae;" horiz-adv-x="1468" d="M63 651.5q0 278.5 197 475t475.5 196.5t474 -196.5t195.5 -475t-195.5 -474t-474 -195.5t-475.5 195.5t-197 474zM154 651q0 -240 170 -409.5t411 -169.5q240 0 410 170t170 409q0 242 -170 412t-410 170q-242 0 -411.5 -170t-169.5 -412zM426 301v692q150 23 270 23 q385 0 385 -244q0 -115 -100 -178q51 -37 78.5 -101.5t46.5 -191.5h-283q-14 123 -40.5 164t-73.5 43v-207h-283zM702 680q45 -4 77 15.5t32 52t-30.5 51t-78.5 14.5v-133z" />
<glyph unicode="&#xaf;" horiz-adv-x="1058" d="M156 1247v207h731v-207h-731z" />
<glyph unicode="&#xb0;" horiz-adv-x="716" d="M53 1141q0 127 89 216t216 89q125 0 215.5 -90t90.5 -215t-90.5 -215t-215.5 -90q-127 0 -216 89t-89 216zM221 1140.5q0 -57.5 40 -97t97.5 -39.5t97.5 39.5t40 97t-40 97.5t-97.5 40t-97.5 -40t-40 -97.5z" />
<glyph unicode="&#xb1;" horiz-adv-x="1234" d="M90 0v317h1055v-317h-1055zM90 602v318h365v206h325v-206h365v-318h-365v-207h-325v207h-365z" />
<glyph unicode="&#xb2;" horiz-adv-x="829" d="M55 860v244q35 20 105.5 62t106.5 63.5t80 54.5t62.5 60.5t18.5 54.5q0 51 -98 51q-117 0 -228 -53l-47 239q166 70 348 70q166 0 261.5 -58.5t95.5 -207.5q0 -94 -58.5 -167t-177.5 -157h244v-256h-713z" />
<glyph unicode="&#xb3;" horiz-adv-x="829" d="M49 893l31 246q121 -51 227 -52q131 0 131 41q0 43 -82 43h-159v220h125q92 0 92 36.5t-101 36.5q-102 0 -196 -39l-37 232q137 49 297 49q168 0 263 -59.5t95 -180.5q0 -123 -135 -180q72 -18 124 -73.5t52 -129.5q0 -125 -113.5 -182t-287.5 -57q-189 0 -326 49z" />
<glyph unicode="&#xb4;" horiz-adv-x="864" d="M111 1208l225 318h407l-335 -318h-297z" />
<glyph unicode="&#xb5;" horiz-adv-x="1421" d="M102 -397v1482h523v-641q0 -41 28.5 -70.5t67.5 -29.5t67.5 29.5t28.5 70.5v641h522v-1085h-450v92q-82 -119 -211 -119q-47 0 -92 19v-389h-484z" />
<glyph unicode="&#xb6;" horiz-adv-x="1200" d="M49 1030.5q0 147.5 103.5 250.5t253.5 103h727v-133h-172v-1423h-158v1423h-168v-1423h-158v848h-71q-150 0 -253.5 103.5t-103.5 251z" />
<glyph unicode="&#xb7;" horiz-adv-x="677" d="M98 444v410h482v-410h-482z" />
<glyph unicode="&#xb8;" horiz-adv-x="696" d="M74 -424l53 119q250 -53 250 53q0 61 -176 72l143 246l164 16l-131 -201q100 -4 169.5 -51t69.5 -121q0 -82 -66.5 -134t-189.5 -52q-151 0 -286 53z" />
<glyph unicode="&#xb9;" horiz-adv-x="829" d="M119 1329v184q244 0 254 179h270v-832h-324v469h-200z" />
<glyph unicode="&#xba;" horiz-adv-x="1095" d="M84 852q0 178 134 282.5t331 104.5q195 0 329 -104.5t134 -282.5q0 -176 -134.5 -281.5t-328.5 -105.5q-197 0 -331 104.5t-134 282.5zM438 852q0 -53 31 -91t78 -38t77.5 38t30.5 91t-30.5 91t-77.5 38t-78 -38t-31 -91z" />
<glyph unicode="&#xbb;" horiz-adv-x="1671" d="M47 55l428 494l-428 493h461l393 -493l-393 -494h-461zM768 55l428 494l-428 493h461l393 -493l-393 -494h-461z" />
<glyph unicode="&#xbc;" horiz-adv-x="2283" d="M147 1044v185q244 0 254 178h271v-832h-324v469h-201zM526 -39l918 1473h313l-917 -1473h-314zM1354 150v231l321 450h381v-448h80v-233h-80v-150h-303v150h-399zM1614 377h145v207z" />
<glyph unicode="&#xbd;" horiz-adv-x="2283" d="M117 1044v185q244 0 254 178h270v-832h-324v469h-200zM496 -39l917 1473h313l-917 -1473h-313zM1470 0v244q35 20 106 62t106.5 63.5t79.5 54.5t62.5 60.5t18.5 54.5q0 51 -98 51q-117 0 -227 -53l-48 239q166 70 349 70q166 0 261 -58.5t95 -207.5q0 -94 -58.5 -167 t-177.5 -157h244v-256h-713z" />
<glyph unicode="&#xbe;" horiz-adv-x="2283" d="M109 608l30 246q121 -51 228 -51q131 0 131 41q0 43 -82 43h-160v219h125q92 0 92 37t-100 37q-102 0 -197 -39l-37 231q137 49 297 49q168 0 263.5 -59t95.5 -180q0 -123 -136 -181q72 -18 124.5 -73.5t52.5 -128.5q0 -125 -114 -182.5t-288 -57.5q-188 0 -325 49z M545 -39l917 1473h314l-918 -1473h-313zM1393 150v231l321 450h381v-448h80v-233h-80v-150h-303v150h-399zM1653 377h145v207z" />
<glyph unicode="&#xbf;" horiz-adv-x="1054" d="M55 0q0 86 43 166t93.5 129t93.5 111.5t43 119.5v43h409v-69q0 -55 -30.5 -110.5t-66.5 -94.5t-66.5 -92t-30.5 -107q0 -70 116 -69q131 0 285 57l66 -326q-217 -84 -459 -84q-225 0 -360.5 77t-135.5 249zM287 676v409h481v-409h-481z" />
<glyph unicode="&#xc0;" horiz-adv-x="1552" d="M-27 0l484 1384h637l485 -1384h-535l-63 231h-410l-61 -231h-537zM330 1825h407l226 -318h-297zM659 555h234l-117 426z" />
<glyph unicode="&#xc1;" horiz-adv-x="1552" d="M-27 0l484 1384h637l485 -1384h-535l-63 231h-410l-61 -231h-537zM569 1507l226 318h407l-336 -318h-297zM659 555h234l-117 426z" />
<glyph unicode="&#xc2;" horiz-adv-x="1552" d="M-27 0l484 1384h637l485 -1384h-535l-63 231h-410l-61 -231h-537zM334 1507l244 318h397l244 -318h-297l-146 144l-145 -144h-297zM659 555h234l-117 426z" />
<glyph unicode="&#xc3;" horiz-adv-x="1552" d="M-27 0l484 1384h637l485 -1384h-535l-63 231h-410l-61 -231h-537zM358 1503q0 111 72 213.5t186 102.5q88 0 180.5 -51.5t123 -51.5t59.5 33t41 80h170q-2 -121 -78 -226.5t-184 -105.5q-84 0 -173 50t-134 50q-33 0 -58.5 -27.5t-38.5 -66.5h-166zM659 555h234l-117 426 z" />
<glyph unicode="&#xc4;" horiz-adv-x="1552" d="M-27 0l484 1384h637l485 -1384h-535l-63 231h-410l-61 -231h-537zM352 1524v268h334v-268h-334zM659 555h234l-117 426zM868 1524v268h334v-268h-334z" />
<glyph unicode="&#xc5;" horiz-adv-x="1552" d="M-27 0l484 1384h637l485 -1384h-535l-63 231h-410l-61 -231h-537zM524 1687.5q0 102.5 74 167t178.5 64.5t178 -64.5t73.5 -167t-73.5 -167t-178 -64.5t-178.5 64.5t-74 167zM659 555h234l-117 426zM670 1688q0 -43 30.5 -72t75.5 -29t76 29t31 72t-31 71.5t-76 28.5 t-75.5 -28.5t-30.5 -71.5z" />
<glyph unicode="&#xc6;" horiz-adv-x="2146" d="M-63 0l733 1384h1390v-389h-583l8 -121h487v-360h-461l9 -127h540v-387h-995l-16 223h-459l-113 -223h-540zM758 555h266l-31 440h-12z" />
<glyph unicode="&#xc7;" horiz-adv-x="1361" d="M57 692q0 332 209 525.5t553 193.5q244 0 502 -86l-102 -373q-121 51 -267 52q-168 0 -260 -82t-92 -229.5t92 -229.5t260 -82q145 0 267 51l102 -373q-250 -84 -498 -86l-59 -92q100 -4 170 -51t70 -121q0 -82 -67 -134t-189 -52q-152 0 -287 53l53 119q250 -53 250 53 q0 61 -176 72l94 164q-287 37 -456 224t-169 484z" />
<glyph unicode="&#xc8;" horiz-adv-x="1347" d="M119 0v1384h1143v-389h-623v-121h545v-360h-545v-127h623v-387h-1143zM252 1825h407l226 -318h-297z" />
<glyph unicode="&#xc9;" horiz-adv-x="1347" d="M119 0v1384h1143v-389h-623v-121h545v-360h-545v-127h623v-387h-1143zM444 1507l226 318h407l-336 -318h-297z" />
<glyph unicode="&#xca;" horiz-adv-x="1347" d="M119 0v1384h1143v-389h-623v-121h545v-360h-545v-127h623v-387h-1143zM248 1507l244 318h397l244 -318h-297l-146 144l-145 -144h-297z" />
<glyph unicode="&#xcb;" horiz-adv-x="1347" d="M119 0v1384h1143v-389h-623v-121h545v-360h-545v-127h623v-387h-1143zM270 1524v268h334v-268h-334zM786 1524v268h334v-268h-334z" />
<glyph unicode="&#xcc;" horiz-adv-x="772" d="M-35 1825h408l225 -318h-297zM119 0v1384h534v-1384h-534z" />
<glyph unicode="&#xcd;" horiz-adv-x="772" d="M119 0v1384h534v-1384h-534zM178 1507l225 318h408l-336 -318h-297z" />
<glyph unicode="&#xce;" horiz-adv-x="772" d="M-57 1507l243 318h398l243 -318h-297l-145 144l-145 -144h-297zM119 0v1384h534v-1384h-534z" />
<glyph unicode="&#xcf;" horiz-adv-x="772" d="M-39 1524v268h334v-268h-334zM119 0v1384h534v-1384h-534zM477 1524v268h334v-268h-334z" />
<glyph unicode="&#xd0;" horiz-adv-x="1624" d="M8 606v205h133v565q233 35 533 35q406 0 650.5 -191.5t244.5 -535.5q0 -176 -64.5 -308t-161 -207t-231.5 -121t-254 -60.5t-250 -14.5q-199 0 -467 29v604h-133zM674 367q16 -2 61 -2q150 0 222.5 93t72.5 251q0 154 -75.5 238.5t-215.5 84.5q-49 0 -65 -2v-219h215 v-205h-215v-239z" />
<glyph unicode="&#xd1;" horiz-adv-x="1667" d="M119 0v1384h532l408 -706v706h489v-1384h-506l-434 711v-711h-489zM434 1503q0 111 72 213.5t186 102.5q88 0 180.5 -51.5t123 -51.5t59 33t41.5 80h170q-2 -121 -78 -226.5t-184 -105.5q-84 0 -173.5 50t-134.5 50q-33 0 -58.5 -27.5t-37.5 -66.5h-166z" />
<glyph unicode="&#xd2;" horiz-adv-x="1677" d="M55 692q0 332 215 525.5t570 193.5q352 0 567 -193.5t215 -525.5t-215 -525.5t-567 -193.5q-354 0 -569.5 193.5t-215.5 525.5zM422 1825h407l226 -318h-297zM594 692.5q0 -155.5 62.5 -238.5t183.5 -83t182 83t61 238.5t-61 238.5t-182 83t-183.5 -83t-62.5 -238.5z" />
<glyph unicode="&#xd3;" horiz-adv-x="1677" d="M55 692q0 332 215 525.5t570 193.5q352 0 567 -193.5t215 -525.5t-215 -525.5t-567 -193.5q-354 0 -569.5 193.5t-215.5 525.5zM594 692.5q0 -155.5 62.5 -238.5t183.5 -83t182 83t61 238.5t-61 238.5t-182 83t-183.5 -83t-62.5 -238.5zM610 1507l226 318h407l-336 -318 h-297z" />
<glyph unicode="&#xd4;" horiz-adv-x="1677" d="M55 692q0 332 215 525.5t570 193.5q352 0 567 -193.5t215 -525.5t-215 -525.5t-567 -193.5q-354 0 -569.5 193.5t-215.5 525.5zM395 1507l244 318h397l244 -318h-297l-145 144l-146 -144h-297zM594 692.5q0 -155.5 62.5 -238.5t183.5 -83t182 83t61 238.5t-61 238.5 t-182 83t-183.5 -83t-62.5 -238.5z" />
<glyph unicode="&#xd5;" horiz-adv-x="1677" d="M55 692q0 332 215 525.5t570 193.5q352 0 567 -193.5t215 -525.5t-215 -525.5t-567 -193.5q-354 0 -569.5 193.5t-215.5 525.5zM420 1503q0 111 71.5 213.5t186.5 102.5q88 0 180 -51.5t123 -51.5t59.5 33t40.5 80h170q-2 -121 -77.5 -226.5t-184.5 -105.5q-84 0 -173 50 t-134 50q-33 0 -58.5 -27.5t-37.5 -66.5h-166zM594 692.5q0 -155.5 62.5 -238.5t183.5 -83t182 83t61 238.5t-61 238.5t-182 83t-183.5 -83t-62.5 -238.5z" />
<glyph unicode="&#xd6;" horiz-adv-x="1677" d="M55 692q0 332 215 525.5t570 193.5q352 0 567 -193.5t215 -525.5t-215 -525.5t-567 -193.5q-354 0 -569.5 193.5t-215.5 525.5zM414 1524v268h334v-268h-334zM594 692.5q0 -155.5 62.5 -238.5t183.5 -83t182 83t61 238.5t-61 238.5t-182 83t-183.5 -83t-62.5 -238.5z M930 1524v268h334v-268h-334z" />
<glyph unicode="&#xd7;" horiz-adv-x="1142" d="M57 811l226 225l286 -286l287 286l229 -231l-286 -287l286 -287l-223 -223l-287 287l-286 -287l-230 232l285 284z" />
<glyph unicode="&#xd8;" horiz-adv-x="1677" d="M55 692q0 332 215 525.5t570 193.5q221 0 395 -82l117 160l96 -72l-109 -145q283 -195 283 -580q0 -332 -215 -525.5t-567 -193.5q-221 0 -400 80l-116 -157l-97 69l109 148q-281 196 -281 579zM594 692q0 -113 31 -186l348 471q-51 37 -133 37q-121 0 -183.5 -83 t-62.5 -239zM702 408q55 -37 138 -37q121 0 182 83t61 238q0 109 -32 187z" />
<glyph unicode="&#xd9;" horiz-adv-x="1546" d="M104 547v837h535v-831q0 -84 27.5 -128t105.5 -44q80 0 107.5 44t27.5 128v831h535v-837q0 -289 -174 -431.5t-495.5 -142.5t-495 142.5t-173.5 431.5zM354 1825h408l225 -318h-297z" />
<glyph unicode="&#xda;" horiz-adv-x="1546" d="M104 547v837h535v-831q0 -84 27.5 -128t105.5 -44q80 0 107.5 44t27.5 128v831h535v-837q0 -289 -174 -431.5t-495.5 -142.5t-495 142.5t-173.5 431.5zM578 1507l225 318h407l-336 -318h-296z" />
<glyph unicode="&#xdb;" horiz-adv-x="1546" d="M104 547v837h535v-831q0 -84 27.5 -128t105.5 -44q80 0 107.5 44t27.5 128v831h535v-837q0 -289 -174 -431.5t-495.5 -142.5t-495 142.5t-173.5 431.5zM330 1507l243 318h398l243 -318h-296l-146 144l-145 -144h-297z" />
<glyph unicode="&#xdc;" horiz-adv-x="1546" d="M104 547v837h535v-831q0 -84 27.5 -128t105.5 -44q80 0 107.5 44t27.5 128v831h535v-837q0 -289 -174 -431.5t-495.5 -142.5t-495 142.5t-173.5 431.5zM348 1524v268h334v-268h-334zM864 1524v268h334v-268h-334z" />
<glyph unicode="&#xdd;" horiz-adv-x="1464" d="M-37 1384h541l225 -499l232 499h538l-500 -890v-494h-534v494zM481 1507l226 318h407l-336 -318h-297z" />
<glyph unicode="&#xde;" horiz-adv-x="1472" d="M119 0v1384h524v-159q782 -20 782 -527q0 -139 -66.5 -243.5t-180 -163t-248.5 -86t-287 -23.5v-182h-524zM643 553q39 -2 78 1t83 16.5t71.5 47t27.5 84.5q0 61 -51 98.5t-106.5 44.5t-102.5 1v-293z" />
<glyph unicode="&#xdf;" horiz-adv-x="1523" d="M100 0v967q0 113 40 213t120 182t214 130t308 48q264 0 446.5 -125t182.5 -311q0 -121 -59.5 -214t-153.5 -136q133 -41 205 -139.5t72 -229.5q0 -115 -46.5 -198t-127 -128t-174 -65.5t-206 -20.5t-212.5 19l45 356q41 -4 71 -4q63 0 107.5 26.5t44.5 78.5 q0 53 -40 81.5t-106 28.5h-67v359h22q160 0 160 122q0 49 -42 83t-122 34q-96 0 -143 -53t-47 -133v-971h-492z" />
<glyph unicode="&#xe0;" horiz-adv-x="1329" d="M39 322q0 172 121 261t346 89q119 0 213 -21v11q0 100 -191 100q-184 0 -340 -60l-71 324q221 86 522 86q602 0 602 -471v-641h-516v100q-137 -127 -317 -127q-160 0 -264.5 102t-104.5 247zM229 1526h408l225 -318h-297zM528 346q0 -37 23.5 -60.5t66.5 -23.5 q113 0 113 141v37q-31 6 -76 6q-59 0 -93 -26.5t-34 -73.5z" />
<glyph unicode="&#xe1;" horiz-adv-x="1329" d="M39 322q0 172 121 261t346 89q119 0 213 -21v11q0 100 -191 100q-184 0 -340 -60l-71 324q221 86 522 86q602 0 602 -471v-641h-516v100q-137 -127 -317 -127q-160 0 -264.5 102t-104.5 247zM389 1208l225 318h408l-336 -318h-297zM528 346q0 -37 23.5 -60.5t66.5 -23.5 q113 0 113 141v37q-31 6 -76 6q-59 0 -93 -26.5t-34 -73.5z" />
<glyph unicode="&#xe2;" horiz-adv-x="1329" d="M39 322q0 172 121 261t346 89q119 0 213 -21v11q0 100 -191 100q-184 0 -340 -60l-71 324q221 86 522 86q602 0 602 -471v-641h-516v100q-137 -127 -317 -127q-160 0 -264.5 102t-104.5 247zM201 1208l243 318h398l243 -318h-297l-145 144l-145 -144h-297zM528 346 q0 -37 23.5 -60.5t66.5 -23.5q113 0 113 141v37q-31 6 -76 6q-59 0 -93 -26.5t-34 -73.5z" />
<glyph unicode="&#xe3;" horiz-adv-x="1329" d="M39 322q0 172 121 261t346 89q119 0 213 -21v11q0 100 -191 100q-184 0 -340 -60l-71 324q221 86 522 86q602 0 602 -471v-641h-516v100q-137 -127 -317 -127q-160 0 -264.5 102t-104.5 247zM242 1204q0 111 71.5 213.5t186.5 102.5q88 0 180 -51.5t123 -51.5t59.5 33 t40.5 80h170q-2 -121 -77.5 -226.5t-184.5 -105.5q-84 0 -173 50t-134 50q-33 0 -58.5 -27.5t-37.5 -66.5h-166zM528 346q0 -37 23.5 -60.5t66.5 -23.5q113 0 113 141v37q-31 6 -76 6q-59 0 -93 -26.5t-34 -73.5z" />
<glyph unicode="&#xe4;" horiz-adv-x="1329" d="M39 322q0 172 121 261t346 89q119 0 213 -21v11q0 100 -191 100q-184 0 -340 -60l-71 324q221 86 522 86q602 0 602 -471v-641h-516v100q-137 -127 -317 -127q-160 0 -264.5 102t-104.5 247zM229 1225v268h334v-268h-334zM528 346q0 -37 23.5 -60.5t66.5 -23.5 q113 0 113 141v37q-31 6 -76 6q-59 0 -93 -26.5t-34 -73.5zM745 1225v268h334v-268h-334z" />
<glyph unicode="&#xe5;" horiz-adv-x="1329" d="M39 322q0 172 121 261t346 89q119 0 213 -21v11q0 100 -191 100q-184 0 -340 -60l-71 324q221 86 522 86q602 0 602 -471v-641h-516v100q-137 -127 -317 -127q-160 0 -264.5 102t-104.5 247zM391 1431.5q0 102.5 74 167t178.5 64.5t178 -64.5t73.5 -167t-73.5 -167 t-178 -64.5t-178.5 64.5t-74 167zM528 346q0 -37 23.5 -60.5t66.5 -23.5q113 0 113 141v37q-31 6 -76 6q-59 0 -93 -26.5t-34 -73.5zM537 1432q0 -43 30.5 -72t75.5 -29t76 29t31 72t-31 71.5t-76 28.5t-75.5 -28.5t-30.5 -71.5z" />
<glyph unicode="&#xe6;" horiz-adv-x="1972" d="M37 322q0 172 121 261t346 89q119 0 213 -21v11q0 100 -191 100q-184 0 -340 -60l-71 324q221 86 465 86q289 0 426 -162q127 162 368 162q272 0 413.5 -153.5t141.5 -413.5q0 -37 -8 -123h-682q57 -117 297 -117q131 0 285 51l53 -307q-193 -76 -434 -76 q-307 0 -455 181q-152 -180 -479 -181q-219 0 -344 99.5t-125 249.5zM532 346q0 -37 24 -60.5t67 -23.5q113 0 112 141v37q-31 6 -76 6q-59 0 -93 -26.5t-34 -73.5zM1217 666h270q-18 143 -128.5 143t-141.5 -143z" />
<glyph unicode="&#xe7;" horiz-adv-x="1103" d="M49 543q0 254 165 411.5t443 157.5q188 0 402 -74l-68 -336q-102 43 -209 43q-119 0 -170 -57t-51 -139q0 -80 51.5 -139.5t169.5 -59.5q111 0 209 45l68 -350q-197 -68 -379 -72l-59 -92q100 -4 169.5 -51t69.5 -121q0 -82 -66.5 -134t-189.5 -52q-152 0 -287 53l54 119 q250 -53 250 53q0 61 -177 72l95 162q-227 33 -358.5 183.5t-131.5 377.5z" />
<glyph unicode="&#xe8;" horiz-adv-x="1253" d="M47 555q0 -283 182.5 -432.5t462.5 -149.5q270 0 463 76l-53 307q-154 -51 -285 -51q-240 0 -297 117h682q43 307 -98 498.5t-469 191.5q-246 0 -417 -154.5t-171 -402.5zM219 1526h408l225 -318h-297zM506 666q31 143 141.5 143t128.5 -143h-270zM506 666h270h-270z" />
<glyph unicode="&#xe9;" horiz-adv-x="1253" d="M47 555q0 -283 182.5 -432.5t462.5 -149.5q270 0 463 76l-53 307q-154 -51 -285 -51q-240 0 -297 117h682q43 307 -98 498.5t-469 191.5q-246 0 -417 -154.5t-171 -402.5zM387 1208l225 318h408l-336 -318h-297zM506 666q31 143 141.5 143t128.5 -143h-270zM506 666h270 h-270z" />
<glyph unicode="&#xea;" horiz-adv-x="1253" d="M47 555q0 -283 182.5 -432.5t462.5 -149.5q270 0 463 76l-53 307q-154 -51 -285 -51q-240 0 -297 117h682q43 307 -98 498.5t-469 191.5q-246 0 -417 -154.5t-171 -402.5zM193 1208l243 318h398l243 -318h-297l-145 144l-146 -144h-296zM506 666q31 143 141.5 143 t128.5 -143h-270zM506 666h270h-270z" />
<glyph unicode="&#xeb;" horiz-adv-x="1253" d="M47 555q0 -283 182.5 -432.5t462.5 -149.5q270 0 463 76l-53 307q-154 -51 -285 -51q-240 0 -297 117h682q43 307 -98 498.5t-469 191.5q-246 0 -417 -154.5t-171 -402.5zM209 1225v268h334v-268h-334zM506 666q31 143 141.5 143t128.5 -143h-270zM506 666h270h-270z M725 1225v268h334v-268h-334z" />
<glyph unicode="&#xec;" horiz-adv-x="727" d="M-49 1526h407l226 -318h-297zM102 0v1085h523v-1085h-523z" />
<glyph unicode="&#xed;" horiz-adv-x="727" d="M102 0v1085h523v-1085h-523zM154 1208l225 318h407l-335 -318h-297z" />
<glyph unicode="&#xee;" horiz-adv-x="727" d="M-80 1208l244 318h397l244 -318h-297l-146 144l-145 -144h-297zM102 0v1085h523v-1085h-523z" />
<glyph unicode="&#xef;" horiz-adv-x="727" d="M-61 1225v268h333v-268h-333zM102 0v1085h523v-1085h-523zM455 1225v268h333v-268h-333z" />
<glyph unicode="&#xf0;" horiz-adv-x="1302" d="M53 491.5q0 237.5 133 378t318 140.5q182 0 293 -101q-66 143 -193 260l-297 -118l-49 127l223 88q-94 66 -243 133l442 100q90 -45 158 -92l182 74l49 -127l-111 -45q287 -274 287 -742q0 -274 -171 -434t-423 -160t-425 140.5t-173 378zM512 492q0 -70 39 -119 t98.5 -49t98 49t38.5 119q0 72 -38.5 121t-98 49t-98.5 -49t-39 -121z" />
<glyph unicode="&#xf1;" horiz-adv-x="1431" d="M102 0v1085h506v-106q133 133 340 133q166 0 278.5 -107.5t112.5 -267.5v-737h-522v621q0 41 -28.5 70.5t-67.5 29.5t-67.5 -29.5t-28.5 -70.5v-621h-523zM303 1204q0 111 71.5 213.5t186.5 102.5q88 0 180.5 -51.5t123 -51.5t59 33t41.5 80h170q-2 -121 -78 -226.5 t-185 -105.5q-84 0 -173 50t-134 50q-33 0 -58.5 -27.5t-37.5 -66.5h-166z" />
<glyph unicode="&#xf2;" d="M45 543q0 262 189.5 415.5t467.5 153.5q274 0 464 -153.5t190 -415.5t-189.5 -416t-464.5 -154q-279 0 -468 154t-189 416zM268 1526h408l225 -318h-297zM547 543q0 -80 43 -135.5t110.5 -55.5t110.5 55.5t43 135.5t-43 135t-110.5 55t-110.5 -55t-43 -135z" />
<glyph unicode="&#xf3;" d="M45 543q0 262 189.5 415.5t467.5 153.5q274 0 464 -153.5t190 -415.5t-189.5 -416t-464.5 -154q-279 0 -468 154t-189 416zM467 1208l225 318h408l-336 -318h-297zM547 543q0 -80 43 -135.5t110.5 -55.5t110.5 55.5t43 135.5t-43 135t-110.5 55t-110.5 -55t-43 -135z" />
<glyph unicode="&#xf4;" d="M45 543q0 262 189.5 415.5t467.5 153.5q274 0 464 -153.5t190 -415.5t-189.5 -416t-464.5 -154q-279 0 -468 154t-189 416zM258 1208l244 318h397l244 -318h-297l-146 144l-145 -144h-297zM547 543q0 -80 43 -135.5t110.5 -55.5t110.5 55.5t43 135.5t-43 135t-110.5 55 t-110.5 -55t-43 -135z" />
<glyph unicode="&#xf5;" d="M45 543q0 262 189.5 415.5t467.5 153.5q274 0 464 -153.5t190 -415.5t-189.5 -416t-464.5 -154q-279 0 -468 154t-189 416zM272 1204q0 111 72 213.5t186 102.5q88 0 180.5 -51.5t123 -51.5t59.5 33t41 80h170q-2 -121 -78 -226.5t-184 -105.5q-84 0 -173 50t-134 50 q-33 0 -58.5 -27.5t-38.5 -66.5h-166zM547 543q0 -80 43 -135.5t110.5 -55.5t110.5 55.5t43 135.5t-43 135t-110.5 55t-110.5 -55t-43 -135z" />
<glyph unicode="&#xf6;" d="M45 543q0 262 189.5 415.5t467.5 153.5q274 0 464 -153.5t190 -415.5t-189.5 -416t-464.5 -154q-279 0 -468 154t-189 416zM276 1225v268h334v-268h-334zM547 543q0 -80 43 -135.5t110.5 -55.5t110.5 55.5t43 135.5t-43 135t-110.5 55t-110.5 -55t-43 -135zM793 1225v268 h333v-268h-333z" />
<glyph unicode="&#xf7;" horiz-adv-x="1177" d="M61 362v318h1055v-318h-1055zM395 -59v288h387v-288h-387zM395 811v289h387v-289h-387z" />
<glyph unicode="&#xf8;" d="M45 543q0 262 189.5 415.5t467.5 153.5q195 0 355 -82l100 119l70 -59l-92 -109q221 -158 221 -438q0 -262 -189.5 -416t-464.5 -154q-201 0 -354 80l-102 -121l-70 60l92 108q-223 160 -223 443zM547 543q0 -55 16 -94l225 264q-39 35 -88 35q-70 0 -111.5 -61.5 t-41.5 -143.5zM614 369q33 -31 86 -31q70 0 112 61.5t42 143.5q0 49 -14 90z" />
<glyph unicode="&#xf9;" horiz-adv-x="1431" d="M92 348v737h522v-620q0 -41 29 -70.5t68 -29.5t67.5 29.5t28.5 70.5v620h522v-1085h-506v106q-133 -133 -340 -133q-166 0 -278.5 107.5t-112.5 267.5zM242 1526h407l225 -318h-296z" />
<glyph unicode="&#xfa;" horiz-adv-x="1431" d="M92 348v737h522v-620q0 -41 29 -70.5t68 -29.5t67.5 29.5t28.5 70.5v620h522v-1085h-506v106q-133 -133 -340 -133q-166 0 -278.5 107.5t-112.5 267.5zM520 1208l225 318h408l-336 -318h-297z" />
<glyph unicode="&#xfb;" horiz-adv-x="1431" d="M92 348v737h522v-620q0 -41 29 -70.5t68 -29.5t67.5 29.5t28.5 70.5v620h522v-1085h-506v106q-133 -133 -340 -133q-166 0 -278.5 107.5t-112.5 267.5zM268 1208l244 318h397l244 -318h-297l-145 144l-146 -144h-297z" />
<glyph unicode="&#xfc;" horiz-adv-x="1431" d="M92 348v737h522v-620q0 -41 29 -70.5t68 -29.5t67.5 29.5t28.5 70.5v620h522v-1085h-506v106q-133 -133 -340 -133q-166 0 -278.5 107.5t-112.5 267.5zM287 1225v268h334v-268h-334zM803 1225v268h334v-268h-334z" />
<glyph unicode="&#xfd;" horiz-adv-x="1425" d="M88 428v657h522v-587q0 -43 28 -73t69 -30t68.5 30t27.5 73v587h522v-913q0 -315 -149.5 -455.5t-489.5 -140.5q-549 0 -549 291q0 92 60.5 164.5t173.5 111.5q-137 10 -210 85t-73 200zM512 1208l225 318h408l-336 -318h-297zM614 -31q0 -96 88 -96q100 0 101 121v145 q-8 -2 -20.5 -4t-45 -14t-57.5 -29.5t-45.5 -49.5t-20.5 -73z" />
<glyph unicode="&#xfe;" horiz-adv-x="1441" d="M102 -397v1910h523v-538q127 137 309 137q201 0 329 -164t128 -403.5t-128 -405.5t-329 -166q-199 0 -330 166v-536h-502zM582 545q0 -76 43 -129.5t108.5 -53.5t108.5 53.5t43 129.5t-43 129t-108.5 53t-108.5 -53t-43 -129z" />
<glyph unicode="&#xff;" horiz-adv-x="1425" d="M88 428v657h522v-587q0 -43 28 -73t69 -30t68.5 30t27.5 73v587h522v-913q0 -315 -149.5 -455.5t-489.5 -140.5q-549 0 -549 291q0 92 60.5 164.5t173.5 111.5q-137 10 -210 85t-73 200zM283 1225v268h333v-268h-333zM614 -31q0 -96 88 -96q100 0 101 121v145 q-8 -2 -20.5 -4t-45 -14t-57.5 -29.5t-45.5 -49.5t-20.5 -73zM799 1225v268h334v-268h-334z" />
<glyph unicode="&#x152;" horiz-adv-x="2207" d="M57 692q0 330 213 511t570 181h1282v-389h-596v-121h518v-360h-518v-127h596v-387h-1282q-356 0 -569.5 181t-213.5 511zM596 692q0 -295 244 -295h174v590h-174q-244 0 -244 -295z" />
<glyph unicode="&#x153;" horiz-adv-x="2052" d="M47 543q0 262 178 415.5t437 153.5q279 0 417 -170q125 170 375 170q272 0 413.5 -153.5t141.5 -413.5q0 -37 -8 -123h-682q57 -117 297 -117q131 0 285 51l53 -307q-193 -76 -434 -76q-291 0 -443 166q-137 -166 -415 -166q-258 0 -436.5 154t-178.5 416zM549 543 q0 -80 43 -135.5t110.5 -55.5t110.5 55.5t43 135.5t-43 135t-110.5 55t-110.5 -55t-43 -135zM1296 666h271q-18 143 -129 143t-142 -143z" />
<glyph unicode="&#x178;" horiz-adv-x="1464" d="M-37 1384h541l225 -499l232 499h538l-500 -890v-494h-534v494zM305 1524v268h334v-268h-334zM821 1524v268h334v-268h-334z" />
<glyph unicode="&#x2c6;" horiz-adv-x="1097" d="M102 1208l244 318h397l244 -318h-297l-145 144l-146 -144h-297z" />
<glyph unicode="&#x2dc;" horiz-adv-x="1087" d="M137 1204q0 111 72 213.5t186 102.5q88 0 180.5 -51.5t123 -51.5t59 33t41.5 80h170q-2 -121 -78 -226.5t-184 -105.5q-84 0 -173.5 50t-134.5 50q-33 0 -58.5 -27.5t-37.5 -66.5h-166z" />
<glyph unicode="&#x2000;" horiz-adv-x="958" />
<glyph unicode="&#x2001;" horiz-adv-x="1918" />
<glyph unicode="&#x2002;" horiz-adv-x="958" />
<glyph unicode="&#x2003;" horiz-adv-x="1918" />
<glyph unicode="&#x2004;" horiz-adv-x="638" />
<glyph unicode="&#x2005;" horiz-adv-x="479" />
<glyph unicode="&#x2006;" horiz-adv-x="319" />
<glyph unicode="&#x2007;" horiz-adv-x="319" />
<glyph unicode="&#x2008;" horiz-adv-x="239" />
<glyph unicode="&#x2009;" horiz-adv-x="382" />
<glyph unicode="&#x200a;" horiz-adv-x="106" />
<glyph unicode="&#x2010;" horiz-adv-x="872" d="M98 375v317h676v-317h-676z" />
<glyph unicode="&#x2011;" horiz-adv-x="872" d="M98 375v317h676v-317h-676z" />
<glyph unicode="&#x2012;" horiz-adv-x="872" d="M98 375v317h676v-317h-676z" />
<glyph unicode="&#x2013;" horiz-adv-x="1359" d="M98 375v317h1164v-317h-1164z" />
<glyph unicode="&#x2014;" horiz-adv-x="1941" d="M98 375v317h1745v-317h-1745z" />
<glyph unicode="&#x2018;" horiz-adv-x="659" d="M84 670v372l231 342h240l-188 -305h198v-409h-481z" />
<glyph unicode="&#x2019;" horiz-adv-x="638" d="M96 975v409h482v-372l-232 -342h-240l189 305h-199z" />
<glyph unicode="&#x201a;" horiz-adv-x="675" d="M98 0v410h482v-373l-232 -342h-239l188 305h-199z" />
<glyph unicode="&#x201c;" horiz-adv-x="1280" d="M84 670v372l231 342h240l-188 -305h198v-409h-481zM705 670v372l231 342h240l-189 -305h199v-409h-481z" />
<glyph unicode="&#x201d;" horiz-adv-x="1259" d="M96 975v409h482v-372l-232 -342h-240l189 305h-199zM717 975v409h481v-372l-231 -342h-240l188 305h-198z" />
<glyph unicode="&#x201e;" horiz-adv-x="1296" d="M98 0v410h482v-373l-232 -342h-239l188 305h-199zM719 0v410h481v-373l-231 -342h-240l189 305h-199z" />
<glyph unicode="&#x2022;" horiz-adv-x="917" d="M102 651.5q0 149.5 103.5 253t253 103.5t253 -103.5t103.5 -253t-103.5 -253t-253 -103.5t-253 103.5t-103.5 253z" />
<glyph unicode="&#x2026;" horiz-adv-x="2177" d="M98 0v410h482v-410h-482zM848 0v410h481v-410h-481zM1597 0v410h482v-410h-482z" />
<glyph unicode="&#x202f;" horiz-adv-x="382" />
<glyph unicode="&#x2039;" horiz-adv-x="950" d="M49 549l393 493h461l-428 -493l428 -494h-461z" />
<glyph unicode="&#x203a;" horiz-adv-x="950" d="M47 55l428 494l-428 493h461l393 -493l-393 -494h-461z" />
<glyph unicode="&#x205f;" horiz-adv-x="479" />
<glyph unicode="&#x20ac;" horiz-adv-x="1536" d="M61 483v164h1104v-164h-346q90 -102 281 -102q145 0 266 51l102 -373q-258 -86 -501 -86q-283 0 -478.5 135.5t-257.5 374.5h-170zM61 750v163h172q63 236 258 367t476 131q244 0 501 -86l-102 -373q-121 51 -266 52q-174 0 -269 -91h334v-163h-1104z" />
<glyph unicode="&#x2122;" horiz-adv-x="1396" d="M104 1202v182h508v-182h-139v-360h-229v360h-140zM676 842v542h221l84 -143l84 143h223v-542h-211v239l-92 -123h-10l-88 123v-239h-211z" />
<glyph unicode="&#xe000;" horiz-adv-x="1085" d="M0 1085h1085v-1085h-1085v1085z" />
<glyph unicode="&#xfb01;" horiz-adv-x="1572" d="M61 727v358h115v5q0 129 52.5 221t143.5 140t191.5 68.5t220.5 20.5q264 0 453 -65l-41 -312q-123 43 -258 43q-68 0 -112 -5t-86 -31.5t-42 -75.5v-9h775v-1085h-523v727h-252v-727h-522v727h-115z" />
<glyph unicode="&#xfb02;" horiz-adv-x="1574" d="M61 727v358h115v5q0 129 54.5 221t150.5 140t204.5 68.5t237.5 20.5q100 0 186.5 -11t174.5 -44t149.5 -84t100.5 -138t39 -200v-1063h-523v1085q0 51 -30.5 86t-90.5 35q-131 0 -131 -112v-9h172v-358h-172v-727h-522v727h-115z" />
<glyph unicode="&#xfb03;" horiz-adv-x="2347" d="M61 727v358h115v5q0 219 129 324.5t350 105.5q98 0 185.5 -23.5t128.5 -45t98 -58.5q154 147 492 147q264 0 452 -65l-41 -312q-123 43 -258 43q-68 0 -112 -5t-85.5 -31.5t-41.5 -75.5v-9h774v-1085h-523v727h-251v-727h-523v727h-252v-727h-522v727h-115zM698 1085h252 v5q0 35 2 51q-59 45 -131 45q-123 0 -123 -96v-5z" />
<glyph unicode="&#xfb04;" horiz-adv-x="2349" d="M61 727v358h115v5q0 219 129 324.5t350 105.5q98 0 186.5 -23.5t128.5 -45t99 -60.5l-2 -5q164 154 530 154q100 0 186.5 -11t174.5 -44t149.5 -84t100.5 -138t39 -200v-1063h-523v1085q0 51 -30.5 86t-89.5 35q-131 0 -131 -112v-9h172v-358h-172v-727h-523v727h-252 v-727h-522v727h-115zM698 1085h252v5q0 35 2 51q-59 45 -131 45q-123 0 -123 -96v-5z" />
</font>
</defs>
</svg>
